<?xml version="1.0" encoding="UTF-8"?>
<svg version="1.1" xmlns="http://www.w3.org/2000/svg" width="512" height="512">
<path d="M0 0 C1.48613724 -0.00461272 2.97226991 -0.01096812 4.4583931 -0.01890898 C8.52956489 -0.0355747 12.60036061 -0.02736862 16.67153358 -0.0149641 C21.0669774 -0.0059046 25.46235706 -0.0198878 29.85778809 -0.03088379 C38.46344746 -0.04866398 47.06896724 -0.04483125 55.67463207 -0.03323323 C62.66904533 -0.02419722 69.66341949 -0.02297563 76.65783691 -0.02732849 C77.65357326 -0.02794142 78.6493096 -0.02855436 79.67521977 -0.02918586 C81.69808166 -0.03046477 83.72094354 -0.03176162 85.74380541 -0.03307623 C104.70919416 -0.04448056 123.67450555 -0.03137061 142.63988161 -0.00987476 C158.91067596 0.00799608 175.18135615 0.00489193 191.45214844 -0.0135498 C210.34998326 -0.03495909 229.24775029 -0.04338194 248.14559555 -0.03110075 C250.16098784 -0.02982656 252.17638015 -0.02856908 254.19177246 -0.02732849 C255.18336656 -0.02671139 256.17496066 -0.02609429 257.19660306 -0.02545848 C264.18206997 -0.02200576 271.16749386 -0.02783226 278.1529541 -0.0372467 C286.66669889 -0.0484687 295.18029618 -0.0454224 303.69402409 -0.02412373 C308.03732483 -0.01361603 312.3803797 -0.00948668 316.72367859 -0.02272034 C320.70112571 -0.03465593 324.67809946 -0.02806274 328.65550375 -0.00681013 C330.09280859 -0.00234898 331.53015356 -0.00459945 332.9674325 -0.01431328 C342.04974815 -0.07097829 348.60574604 0.28496157 355.66699219 6.47277832 C356.20582031 7.12375488 356.74464844 7.77473145 357.29980469 8.44543457 C357.85410156 9.09383301 358.40839844 9.74223145 358.97949219 10.41027832 C362.21730431 15.10948132 362.71480064 19.39647346 362.67928028 24.98808765 C362.68409 26.11000552 362.68409 26.11000552 362.68899688 27.2545884 C362.69731956 29.76894971 362.69136468 32.28307422 362.6855011 34.79743958 C362.68852075 36.61509187 362.6924093 38.4327429 362.69709367 40.25039166 C362.70740651 45.25176586 362.70518349 50.25306863 362.70091307 55.25444877 C362.69845178 60.64584691 362.70745261 66.03722759 362.71495056 71.42861938 C362.72771654 81.99381894 362.72948886 92.5589931 362.7271503 103.12419907 C362.72536898 111.7104948 362.72711278 120.29678281 362.73137474 128.88307762 C362.73196993 130.1040247 362.73256512 131.32497177 362.73317834 132.58291724 C362.73439007 135.06310072 362.7356042 137.5432842 362.73682072 140.02346768 C362.74770372 163.29659222 362.74553026 186.56970228 362.73943587 209.84282764 C362.73426689 231.14109999 362.74552031 252.43930921 362.76453409 273.73757467 C362.78389927 295.59673581 362.79217076 317.45587529 362.78841084 339.31504506 C362.78649668 351.59121816 362.78900719 363.86735233 362.80312538 376.14351845 C362.81502338 386.59515547 362.81646189 397.04672961 362.80433521 407.49836747 C362.79843523 412.83196099 362.797378 418.1654394 362.80933762 423.49902534 C362.8201582 428.38135083 362.81713869 433.26346457 362.80307593 438.14577999 C362.80041842 439.91224828 362.80282847 441.67873297 362.8108118 443.44518522 C362.82091387 445.84713152 362.81249964 448.24834118 362.7995348 450.65025806 C362.80684414 451.33532906 362.81415349 452.02040005 362.82168433 452.72623077 C362.75580876 458.61820446 361.30284404 463.88146865 357.84667969 468.71496582 C357.01910156 469.50967285 357.01910156 469.50967285 356.17480469 470.32043457 C355.63339844 470.86312988 355.09199219 471.4058252 354.53417969 471.96496582 C347.1453858 477.36973172 339.81692849 476.93598323 330.96986389 476.89561462 C329.48459182 476.89978968 327.99932294 476.90526814 326.51405996 476.91193444 C322.44069 476.92638527 318.36752244 476.92214549 314.29414141 476.91476762 C309.89800469 476.91003738 305.50191184 476.92254451 301.10578918 476.93278503 C292.49667522 476.94998098 283.88763422 476.95081142 275.27850754 476.94557213 C268.28121406 476.9415308 261.28394215 476.94297355 254.2866497 476.94832039 C252.79284195 476.94944302 252.79284195 476.94944302 251.26885627 476.95058833 C249.24575285 476.95211981 247.22264944 476.95365816 245.19954603 476.9552033 C226.22750115 476.96893114 207.25549751 476.96348858 188.28345358 476.95201809 C170.92663858 476.94208466 153.56993017 476.95502778 136.21313161 476.97895228 C118.39030469 477.00333405 100.56752743 477.01295347 82.74468416 477.00629956 C72.73883142 477.00280538 62.73306067 477.00505253 52.72722054 477.02255058 C44.20979902 477.03726098 35.69251723 477.03792318 27.17509849 477.02047967 C22.82977445 477.01195785 18.48470015 477.0098489 14.13938904 477.02513123 C10.16005989 477.03895313 6.18119502 477.03424763 2.2018929 477.01489199 C0.76388186 477.01112398 -0.67416616 477.01407708 -2.11214434 477.02450364 C-11.21234574 477.08578568 -17.70151933 476.70235258 -24.81738281 470.57824707 C-25.625625 469.61531738 -25.625625 469.61531738 -26.45019531 468.63293457 C-27.00449219 467.9961377 -27.55878906 467.35934082 -28.12988281 466.70324707 C-31.72314432 461.24537418 -31.85749252 455.86524508 -31.80224609 449.56506348 C-31.80253815 448.68636597 -31.8028302 447.80766846 -31.8031311 446.90234375 C-31.80174354 444.01295926 -31.78620935 441.12383623 -31.77050781 438.23449707 C-31.76677565 436.22525168 -31.76392963 434.21600446 -31.76193237 432.20675659 C-31.75431197 426.92957496 -31.73467714 421.65250418 -31.71252441 416.37536621 C-31.69203167 410.98597716 -31.68292333 405.59657013 -31.67285156 400.20715332 C-31.65142976 389.64069849 -31.61731304 379.07432576 -31.57519531 368.50793457 C-32.79326874 368.51903763 -34.01134216 368.53014069 -35.2663269 368.5415802 C-46.77115432 368.6431398 -58.27589024 368.71798817 -69.78106499 368.76699543 C-75.6953799 368.79303806 -81.60933159 368.82833923 -87.5234375 368.88513184 C-93.23579582 368.93964094 -98.94780578 368.9693952 -104.66040421 368.98232079 C-106.83482468 368.99152671 -109.00922707 369.00950367 -111.18349838 369.03658485 C-114.2400947 369.07312577 -117.2952696 369.07786939 -120.35205078 369.07556152 C-121.24182114 369.0935379 -122.13159149 369.11151428 -123.04832458 369.1300354 C-130.45655684 369.06990043 -136.92299207 366.78663197 -142.49815178 361.78163624 C-148.66274655 355.32537381 -150.02569824 347.84531975 -149.95614624 339.24768066 C-149.96082621 338.34810827 -149.96550618 337.44853588 -149.97032797 336.52170372 C-149.98223877 333.52477395 -149.97283603 330.52830477 -149.96337891 327.53137207 C-149.96744634 325.37570937 -149.97278918 323.22004876 -149.97930908 321.06439209 C-149.99296795 315.22148766 -149.98768985 309.37874242 -149.97817183 303.53583527 C-149.97056788 297.41634192 -149.97762289 291.29686205 -149.98233032 285.17736816 C-149.98778572 274.90146441 -149.98060188 264.62562537 -149.96630859 254.34973145 C-149.94998255 242.47542064 -149.9552712 230.60126438 -149.97178781 218.72695732 C-149.98540878 208.5254681 -149.98731933 198.32402536 -149.9794718 188.12252998 C-149.97479867 182.03244621 -149.9741606 175.94243504 -149.98408127 169.85235596 C-149.99275748 164.12641935 -149.98671683 158.40068169 -149.9693985 152.67476654 C-149.96543719 150.57534871 -149.96656159 148.4759141 -149.97318649 146.37650299 C-149.981406 143.50684001 -149.97107528 140.63781125 -149.95614624 137.76818848 C-149.96283841 136.94093954 -149.96953057 136.11369061 -149.97642553 135.26137352 C-149.89942779 127.61063703 -147.88430545 120.87522357 -142.49815178 115.2342329 C-136.00578078 109.40582783 -128.83372209 107.76894909 -120.35205078 107.94030762 C-119.38498703 107.93957748 -118.41792328 107.93884735 -117.42155457 107.93809509 C-114.26123714 107.94154692 -111.10243909 107.9802939 -107.94238281 108.01965332 C-105.73707891 108.02899 -103.53176456 108.03610207 -101.32644653 108.04109192 C-95.54930502 108.06009423 -89.77280169 108.10913687 -83.99591064 108.16461182 C-78.09013499 108.21595048 -72.18425525 108.23863712 -66.27832031 108.26379395 C-54.71033307 108.31726203 -43.14281746 108.40249267 -31.57519531 108.50793457 C-31.58518806 106.88420677 -31.58518806 106.88420677 -31.59538269 105.22767639 C-31.6563222 95.00279162 -31.70122951 84.77794393 -31.73063183 74.55291843 C-31.74625625 69.29671697 -31.76743554 64.04066268 -31.80151367 58.7845459 C-31.83422219 53.70763143 -31.85207256 48.63085811 -31.85982704 43.55384636 C-31.86534996 41.62145709 -31.87613471 39.68907512 -31.89238548 37.75674629 C-31.91431265 35.04025995 -31.91715589 32.32434935 -31.91577148 29.60778809 C-31.92655731 28.81728058 -31.93734314 28.02677307 -31.94845581 27.21231079 C-31.90397932 19.0933153 -29.79853636 12.3676783 -24.56347656 6.11340332 C-16.83581882 -0.12641462 -9.56660529 -0.06465578 0 0 Z " fill="#16854B" transform="translate(149.5751953125,17.4920654296875)"/>
<path d="M0 0 C8.00182997 0.55826721 12.43994095 5.18759076 17.484375 10.90234375 C36.25697713 36.88401216 21 74.94601922 21 107 C94.92 107 168.84 107 245 107 C245.0928125 161.2025 245.0928125 161.2025 245.1875 216.5 C245.21481201 227.91271484 245.24212402 239.32542969 245.27026367 251.08398438 C245.28381348 265.01269531 245.28381348 265.01269531 245.28633118 271.53186035 C245.28912784 276.08821997 245.30037719 280.64447489 245.31672668 285.20080566 C245.33730786 291.01345632 245.34347271 296.82595478 245.33921683 302.6386385 C245.34010673 304.77140307 245.34605329 306.90417298 245.35764539 309.03690624 C245.37258798 311.92010048 245.3689627 314.80270503 245.36076355 317.68591309 C245.37387054 318.93461056 245.37387054 318.93461056 245.38724232 320.20853424 C245.33900688 326.52821525 244.18069484 331.95026588 240.421875 337.20703125 C239.59429687 338.00173828 239.59429687 338.00173828 238.75 338.8125 C238.20859375 339.35519531 237.6671875 339.89789063 237.109375 340.45703125 C229.72058112 345.86179715 222.3921238 345.42804866 213.5450592 345.38768005 C212.05978713 345.39185511 210.57451825 345.39733357 209.08925527 345.40399987 C205.01588531 345.4184507 200.94271775 345.41421092 196.86933672 345.40683305 C192.4732 345.4021028 188.07710716 345.41460994 183.6809845 345.42485046 C175.07187053 345.44204641 166.46282953 345.44287685 157.85370285 345.43763756 C150.85640937 345.43359623 143.85913746 345.43503898 136.86184502 345.44038582 C135.36803727 345.44150845 135.36803727 345.44150845 133.84405158 345.44265376 C131.82094816 345.44418524 129.79784475 345.44572359 127.77474134 345.44726873 C108.80269647 345.46099657 89.83069283 345.45555401 70.85864889 345.44408352 C53.50183389 345.43415009 36.14512548 345.44709321 18.78832693 345.47101771 C0.9655 345.49539948 -16.85727726 345.5050189 -34.68012053 345.49836498 C-44.68597327 345.49487081 -54.69174402 345.49711796 -64.69758415 345.51461601 C-73.21500567 345.52932641 -81.73228746 345.52998861 -90.2497062 345.5125451 C-94.59503024 345.50402328 -98.94010453 345.50191433 -103.28541565 345.51719666 C-107.26474479 345.53101856 -111.24360967 345.52631306 -115.22291178 345.50695742 C-116.66092283 345.50318941 -118.09897085 345.50614251 -119.53694903 345.51656907 C-128.63715043 345.57785111 -135.12632402 345.19441801 -142.2421875 339.0703125 C-142.78101563 338.42835938 -143.31984375 337.78640625 -143.875 337.125 C-144.42929688 336.48820312 -144.98359375 335.85140625 -145.5546875 335.1953125 C-149.14794901 329.73743961 -149.28229721 324.35731051 -149.22705078 318.05712891 C-149.22748886 316.73908264 -149.22748886 316.73908264 -149.22793579 315.39440918 C-149.22654823 312.50502469 -149.21101404 309.61590166 -149.1953125 306.7265625 C-149.19158033 304.71731711 -149.18873432 302.70806989 -149.18673706 300.69882202 C-149.17911666 295.42164039 -149.15948183 290.14456961 -149.1373291 284.86743164 C-149.11683636 279.47804259 -149.10772801 274.08863556 -149.09765625 268.69921875 C-149.07623445 258.13276392 -149.04211772 247.56639119 -149 237 C-148.3640796 236.99853344 -147.7281592 236.99706688 -147.07296848 236.99555588 C-131.57262376 236.95844326 -116.07253988 236.89936987 -100.57238102 236.81609726 C-93.07648948 236.77635165 -85.58070223 236.74393652 -78.0847168 236.72900391 C-71.54833 236.71596404 -65.01217313 236.68894027 -58.47591585 236.64538693 C-55.01756322 236.62282412 -51.55949362 236.60708617 -48.10106087 236.60811615 C-44.2325843 236.60900547 -40.36468263 236.57866317 -36.49633789 236.54589844 C-35.35985306 236.5509288 -34.22336823 236.55595917 -33.05244446 236.56114197 C-23.28790497 236.43347828 -16.01964175 233.85250742 -9 227 C-4.08868996 220.15924673 -3.6987707 213.44983315 -3.68115234 205.31298828 C-3.67110672 204.24897293 -3.6610611 203.18495758 -3.65071106 202.08869934 C-3.61989643 198.58257573 -3.60284846 195.07652843 -3.5859375 191.5703125 C-3.5672245 189.1350743 -3.54765099 186.69984258 -3.5272522 184.26461792 C-3.47593912 177.86303526 -3.43630881 171.46143158 -3.39910889 165.05975342 C-3.35906421 158.52415775 -3.30797394 151.98864946 -3.2578125 145.453125 C-3.16106289 132.63547915 -3.07627967 119.81778317 -3 107 C-2.34 107 -1.68 107 -1 107 C-1.00138269 106.18193925 -1.00138269 106.18193925 -1.00279331 105.34735203 C-1.02484999 92.09482535 -1.0413485 78.84230187 -1.05181217 65.58976078 C-1.05704166 59.18100872 -1.0641405 52.77226985 -1.07543945 46.36352539 C-1.08626599 40.18440559 -1.09227634 34.00529852 -1.09487724 27.82616997 C-1.09673192 25.4629439 -1.10035332 23.09971856 -1.10573006 20.73649788 C-1.11293738 17.43898104 -1.11399107 14.14151753 -1.11352539 10.84399414 C-1.11712067 9.85641113 -1.12071594 8.86882812 -1.12442017 7.85131836 C-1.1230455 6.95804337 -1.12167084 6.06476837 -1.12025452 5.14442444 C-1.12163721 3.97328645 -1.12163721 3.97328645 -1.12304783 2.77848911 C-1 1 -1 1 0 0 Z " fill="#175B36" transform="translate(267,149)"/>
<path d="M0 0 C29.535 -0.0825 59.07 -0.165 89.5 -0.25 C103.48665039 -0.30462402 103.48665039 -0.30462402 117.75585938 -0.36035156 C129.14550781 -0.37841797 129.14550781 -0.37841797 134.47814941 -0.3817749 C138.20122825 -0.38550029 141.92407875 -0.40048513 145.64709473 -0.42230225 C150.39931887 -0.4497808 155.15121197 -0.45795693 159.90350819 -0.4522891 C161.6455308 -0.45347391 163.38756522 -0.46138118 165.12951946 -0.47686052 C182.72114726 -0.6258936 182.72114726 -0.6258936 190.2421875 5.96484375 C190.78101563 6.61582031 191.31984375 7.26679688 191.875 7.9375 C192.42929687 8.58589844 192.98359375 9.23429687 193.5546875 9.90234375 C197.17444055 15.15587723 197.28303957 19.81989642 197.24050903 25.99128723 C197.24221788 26.89802443 197.24392673 27.80476162 197.24568737 28.7389757 C197.24898192 31.77764294 197.23797903 34.81608943 197.22705078 37.85473633 C197.22648666 40.032786 197.22680324 42.21083605 197.22793579 44.3888855 C197.22851027 50.30372328 197.2167405 56.21848015 197.20278788 62.13329911 C197.19029641 68.31393414 197.18911127 74.49457097 197.18673706 80.67521667 C197.18051764 92.38004527 197.16410054 104.08483656 197.14403808 115.78964871 C197.12823907 125.14418755 197.11732346 134.49872238 197.10986328 143.85327148 C197.10932729 144.51879967 197.10879129 145.18432785 197.10823905 145.87002355 C197.10361325 151.6593215 197.0993077 157.44861968 197.09503365 163.2379179 C197.0762203 188.15863988 197.03637766 213.07928314 197 238 C131.99 238 66.98 238 0 238 C0 159.46 0 80.92 0 0 Z " fill="#21A365" transform="translate(315,18)"/>
<path d="M0 0 C65.01 0 130.02 0 197 0 C197 39.27 197 78.54 197 119 C131.99 119 66.98 119 0 119 C0 79.73 0 40.46 0 0 Z " fill="#107C41" transform="translate(315,256)"/>
<path d="M0 0 C44.81697405 -0.16121214 44.81697405 -0.16121214 63.59375 -0.1953125 C76.55996018 -0.21904938 89.52606642 -0.24695812 102.4921875 -0.30175781 C111.93524584 -0.34164866 121.37821986 -0.36743832 130.82136011 -0.37635398 C135.82064407 -0.38156489 140.81968684 -0.39379681 145.81889343 -0.42292023 C150.52697813 -0.45012477 155.23472289 -0.45843479 159.94287872 -0.45243073 C161.66819864 -0.45352871 163.39353024 -0.46145256 165.11878204 -0.4768219 C182.72113509 -0.62590427 182.72113509 -0.62590427 190.2421875 5.96484375 C190.78101563 6.61582031 191.31984375 7.26679688 191.875 7.9375 C192.42929687 8.58589844 192.98359375 9.23429687 193.5546875 9.90234375 C197.3592535 15.42410576 197.27685286 20.44228244 197.22705078 26.9309082 C197.22729185 27.94255382 197.22753292 28.95419943 197.2277813 29.99650097 C197.2262909 33.26468448 197.21107049 36.53263865 197.1953125 39.80078125 C197.19237122 41.8210845 197.1903313 43.84138926 197.18920898 45.86169434 C197.17873148 53.3453195 197.15080902 60.82891201 197.125 68.3125 C197.08375 85.039375 197.0425 101.76625 197 119 C131.99 119 66.98 119 0 119 C0 79.73 0 40.46 0 0 Z " fill="#32C380" transform="translate(315,18)"/>
<path d="M0 0 C1.77455622 0.00112932 3.5491143 0.00049298 5.32366943 -0.00177002 C10.12486053 -0.00291481 14.92564961 0.0205565 19.72674751 0.04852581 C24.75022452 0.07357859 29.77371137 0.07588452 34.79724121 0.08062744 C44.30270902 0.09304582 53.8079922 0.12585207 63.31337881 0.1660254 C76.16313924 0.21915119 89.01295037 0.24069777 101.86279297 0.26403427 C122.09811999 0.30161426 142.33305744 0.38131271 162.56835938 0.45410156 C162.56835938 39.72410156 162.56835938 78.99410156 162.56835938 119.45410156 C106.56835938 119.45410156 106.56835938 119.45410156 98.56835938 112.45410156 C92.32974815 108.7611592 86.25811389 109.01295284 79.20727539 109.02172852 C77.36231728 109.00644104 77.36231728 109.00644104 75.48008728 108.99084473 C72.1251094 108.96591178 68.77056862 108.95400447 65.41553617 108.94799066 C61.90276513 108.93857999 58.39011936 108.91237453 54.87742615 108.88798523 C48.23364877 108.84439031 41.5898958 108.81580044 34.94601911 108.79266185 C27.37881837 108.76557247 19.81174408 108.72166336 12.24463379 108.67637312 C-3.31405925 108.5836273 -18.87277613 108.51190066 -34.43164062 108.45410156 C-34.50129574 97.13580274 -34.55453059 85.81755532 -34.58707714 74.49908543 C-34.60270156 69.24288397 -34.62388085 63.98682967 -34.65795898 58.73071289 C-34.6906675 53.65379842 -34.70851787 48.5770251 -34.71627235 43.50001335 C-34.72179527 41.56762408 -34.73258003 39.63524212 -34.7488308 37.70291328 C-34.77075796 34.98642694 -34.7736012 32.27051635 -34.7722168 29.55395508 C-34.78300262 28.76344757 -34.79378845 27.97294006 -34.80490112 27.15847778 C-34.76042464 19.03948229 -32.65498167 12.31384529 -27.41992188 6.05957031 C-18.96552773 -0.76706229 -10.30683227 -0.091818 0 0 Z " fill="#21A364" transform="translate(152.431640625,17.5458984375)"/>
<path d="M0 0 C8.00182997 0.55826721 12.43994095 5.18759076 17.484375 10.90234375 C21.21271558 16.06244399 21.2900965 20.78622574 21.26742554 26.92399597 C21.27195665 27.82367751 21.27648776 28.72335905 21.28115618 29.65030366 C21.29381831 32.66560293 21.29217862 35.680722 21.29052734 38.69604492 C21.29651155 40.85787183 21.30331685 43.0196966 21.31088257 45.18151855 C21.32856306 51.05568493 21.33323888 56.92979304 21.33451414 62.80398345 C21.33593541 66.47506997 21.3402046 70.14614166 21.34550858 73.8172245 C21.3640173 86.6279151 21.37217834 99.43856406 21.37060547 112.24926758 C21.36940461 124.18427881 21.39049402 136.11910903 21.4220928 148.05407447 C21.44826363 158.30478616 21.45897238 168.55543879 21.45769465 178.80618364 C21.45718515 184.92659604 21.46286139 191.0468477 21.48405075 197.16722679 C21.50344593 202.9268091 21.50354857 208.68607756 21.48901749 214.44567108 C21.48692974 216.55554221 21.49162822 218.66543305 21.5037384 220.77527046 C21.62390786 243.16796584 21.62390786 243.16796584 14.921875 251.62109375 C14.20515625 252.22050781 13.4884375 252.81992187 12.75 253.4375 C12.04359375 254.05496094 11.3371875 254.67242187 10.609375 255.30859375 C2.60016398 260.50019311 -4.94224591 260.41784859 -14.21875 260.34057617 C-15.64848309 260.33972879 -17.07821749 260.34020721 -18.50794983 260.34190369 C-22.36903909 260.34276073 -26.22984598 260.32518246 -30.0908699 260.30418181 C-34.13340047 260.28536624 -38.17593826 260.28366074 -42.21850586 260.28010559 C-49.86460887 260.27079941 -57.51058246 260.24620507 -65.15662861 260.21605712 C-73.86521539 260.18246856 -82.57380851 260.16601592 -91.282444 260.15097082 C-109.18837128 260.11965415 -127.09417047 260.0663138 -145 260 C-145 252.41 -145 244.82 -145 237 C-141.38168213 236.9906543 -137.76336426 236.98130859 -134.03540039 236.97167969 C-122.06915142 236.93788496 -110.10309303 236.88252202 -98.13698673 236.81609726 C-90.88323172 236.77635595 -83.62958443 236.74393867 -76.37573242 236.72900391 C-70.05029253 236.71596178 -63.72509013 236.68893235 -57.39978403 236.64538693 C-54.05313753 236.6228286 -50.7070411 236.60917275 -47.36027718 236.60811615 C-43.61620775 236.60574567 -39.87306049 236.57865633 -36.12915039 236.54589844 C-35.03006851 236.5509288 -33.93098663 236.55595917 -32.79859924 236.56114197 C-23.15721013 236.43097134 -15.92440772 233.75954087 -9 227 C-4.08868996 220.15924673 -3.6987707 213.44983315 -3.68115234 205.31298828 C-3.67110672 204.24897293 -3.6610611 203.18495758 -3.65071106 202.08869934 C-3.61989643 198.58257573 -3.60284846 195.07652843 -3.5859375 191.5703125 C-3.5672245 189.1350743 -3.54765099 186.69984258 -3.5272522 184.26461792 C-3.47593912 177.86303526 -3.43630881 171.46143158 -3.39910889 165.05975342 C-3.35906421 158.52415775 -3.30797394 151.98864946 -3.2578125 145.453125 C-3.16106289 132.63547915 -3.07627967 119.81778317 -3 107 C-2.34 107 -1.68 107 -1 107 C-1.00138269 106.18193925 -1.00138269 106.18193925 -1.00279331 105.34735203 C-1.02484999 92.09482535 -1.0413485 78.84230187 -1.05181217 65.58976078 C-1.05704166 59.18100872 -1.0641405 52.77226985 -1.07543945 46.36352539 C-1.08626599 40.18440559 -1.09227634 34.00529852 -1.09487724 27.82616997 C-1.09673192 25.4629439 -1.10035332 23.09971856 -1.10573006 20.73649788 C-1.11293738 17.43898104 -1.11399107 14.14151753 -1.11352539 10.84399414 C-1.11712067 9.85641113 -1.12071594 8.86882812 -1.12442017 7.85131836 C-1.1230455 6.95804337 -1.12167084 6.06476837 -1.12025452 5.14442444 C-1.12163721 3.97328645 -1.12163721 3.97328645 -1.12304783 2.77848911 C-1 1 -1 1 0 0 Z " fill="#13492C" transform="translate(267,149)"/>
<path d="M0 0 C10.23 0 20.46 0 31 0 C33.660625 5.1046875 33.660625 5.1046875 36.375 10.3125 C40.3771623 17.98911092 44.39568471 25.65669822 48.4375 33.3125 C51.7043223 39.5030126 54.92771585 45.70990245 58 52 C60.61593365 48.77132513 62.37299489 45.42031486 64.1875 41.6875 C68.14201508 33.64477099 72.22596939 25.67048579 76.3331604 17.70498657 C77.07029884 16.27489278 77.80660481 14.8443696 78.54208374 13.41342163 C79.58730383 11.38007145 80.63506903 9.34805393 81.68359375 7.31640625 C82.00305969 6.69418182 82.32252563 6.0719574 82.65167236 5.43087769 C84.88544603 1.11455397 84.88544603 1.11455397 86 0 C88.21855264 -0.08783542 90.43988496 -0.10694609 92.66015625 -0.09765625 C93.65685585 -0.09553383 93.65685585 -0.09553383 94.6736908 -0.09336853 C96.80333899 -0.08775518 98.93288339 -0.07520054 101.0625 -0.0625 C102.50325369 -0.05748671 103.94400903 -0.05292351 105.38476562 -0.04882812 C108.92321102 -0.03778145 112.46159539 -0.02050792 116 0 C114.5811515 3.84771732 112.7858407 7.20261543 110.6484375 10.69921875 C109.96950439 11.81377441 109.29057129 12.92833008 108.59106445 14.07666016 C107.85247396 15.28033337 107.1137834 16.48394518 106.375 17.6875 C105.61453339 18.93260038 104.85436504 20.17788297 104.09448242 21.42333984 C101.73570212 25.28594581 99.36904407 29.14368243 97 33 C96.62204285 33.6152655 96.24408569 34.23053101 95.85467529 34.86444092 C92.69242625 40.01083949 89.52814763 45.15597833 86.35498047 50.2956543 C85.14079047 52.26303592 83.93183849 54.23366317 82.72900391 56.20800781 C81.56541846 58.08696336 80.36883384 59.9458369 79.14208984 61.78417969 C78.57312988 62.65719727 78.00416992 63.53021484 77.41796875 64.4296875 C76.90387451 65.19265137 76.38978027 65.95561523 75.86010742 66.74169922 C74.74955214 68.99859476 74.74955214 68.99859476 75.63500977 71.40917969 C77.16996555 74.3226032 78.75305087 77.18397846 80.421875 80.0234375 C80.75841599 80.59775009 81.09495697 81.17206268 81.44169617 81.76377869 C82.54072227 83.63641514 83.64508326 85.50583406 84.75 87.375 C85.51838403 88.67988837 86.28669378 89.98482049 87.05493164 91.28979492 C94.89991661 104.5945423 102.84064785 117.84745225 111.08984375 130.90625 C111.56301025 131.65608154 112.03617676 132.40591309 112.52368164 133.1784668 C113.39715107 134.55786992 114.2749549 135.93454214 115.15795898 137.30786133 C118 141.78239684 118 141.78239684 118 144 C107.77 144 97.54 144 87 144 C84.9890625 140.3803125 84.9890625 140.3803125 82.9375 136.6875 C82.46787842 135.84276123 81.99825684 134.99802246 81.5144043 134.12768555 C79.06777127 129.72628947 76.62451071 125.32306419 74.18727112 120.91645813 C72.86981318 118.53496028 71.55094609 116.15424412 70.23196411 113.77359009 C69.27183176 112.03943178 68.31350697 110.30427309 67.35522461 108.5690918 C63.69562348 101.96626799 59.9369123 95.44155919 56 89 C55.74009277 89.55010742 55.48018555 90.10021484 55.21240234 90.66699219 C47.79738341 106.33270623 40.12741697 121.85901194 32.33764648 137.34057617 C31.22192164 139.55878948 30.11043345 141.77913311 29 144 C19.1 144 9.2 144 -1 144 C0.59380194 140.01549516 2.22776601 136.71350835 4.38671875 133.046875 C4.88763283 132.19333687 4.88763283 132.19333687 5.39866638 131.32255554 C6.49143333 129.46294507 7.58933148 127.60642491 8.6875 125.75 C9.4511984 124.45331784 10.21470517 123.15652281 10.97802734 121.85961914 C16.57196467 112.36712358 22.22178197 102.90821786 27.9128418 93.47363281 C29.04255812 91.60001954 30.16715861 89.72331023 31.28613281 87.84326172 C32.50366764 85.82340267 33.75107881 83.82142036 35.01855469 81.83251953 C35.66985352 80.78563965 36.32115234 79.73875977 36.9921875 78.66015625 C37.59144043 77.71922119 38.19069336 76.77828613 38.80810547 75.80883789 C40.30086427 72.29097841 40.07194167 70.64110944 39 67 C37.64528551 64.12613562 37.64528551 64.12613562 35.859375 61.28125 C35.20727051 60.19505371 34.55516602 59.10885742 33.88330078 57.98974609 C33.17230013 56.82643651 32.46119749 55.66318925 31.75 54.5 C31.02097449 53.29178011 30.29295856 52.0829505 29.56591797 50.87353516 C28.08993326 48.42008523 26.6096536 45.96931302 25.12597656 43.52050781 C22.08573665 38.49561461 19.10511084 33.43571077 16.125 28.375 C15.08222265 26.60795995 14.03925825 24.84103027 12.99609375 23.07421875 C12.49964355 22.23294434 12.00319336 21.39166992 11.49169922 20.52490234 C9.98807824 17.9798208 8.48067343 15.43700993 6.97265625 12.89453125 C6.04421894 11.32555154 5.1158308 9.75654273 4.1875 8.1875 C3.76033691 7.46933105 3.33317383 6.75116211 2.89306641 6.01123047 C0 1.11330914 0 1.11330914 0 0 Z " fill="#FCFDFC" transform="translate(75,186)"/>
<path d="M0 0 C8.00182997 0.55826721 12.43994095 5.18759076 17.484375 10.90234375 C21.11760959 15.93081534 21.28038887 20.69768267 21.22705078 26.73754883 C21.22734283 27.60634674 21.22763489 28.47514465 21.22793579 29.37026978 C21.22654608 32.23262634 21.2110017 35.09472034 21.1953125 37.95703125 C21.1915811 39.94528562 21.18873473 41.93354184 21.18673706 43.92179871 C21.17911063 49.14803162 21.15947059 54.3741529 21.1373291 59.6003418 C21.11684938 64.9360198 21.10773079 70.27171588 21.09765625 75.60742188 C21.0762238 86.07167145 21.04104966 96.53580897 21 107 C14.07 107 7.14 107 0 107 C0.02094727 110.24956543 0.04189453 113.49913086 0.06347656 116.84716797 C0.12986274 127.60385327 0.17398188 138.3605478 0.20724869 149.11738396 C0.22809108 155.63696029 0.25634816 162.15632607 0.30175781 168.67578125 C0.34533405 174.97167139 0.36916228 181.26735947 0.37950897 187.56338882 C0.38687914 189.96107284 0.40127125 192.35874624 0.42292023 194.75634384 C0.45210987 198.12409809 0.45594938 201.49102559 0.45410156 204.85888672 C0.47567322 206.33380333 0.47567322 206.33380333 0.49768066 207.83851624 C0.44809425 216.23319582 -1.5021372 223.52007805 -7.1875 229.875 C-10.88769961 233.24026775 -15.12376051 235.77418009 -20 237 C-22.26953125 236.59375 -22.26953125 236.59375 -24 236 C-23.12988281 235.65388672 -23.12988281 235.65388672 -22.2421875 235.30078125 C-13.93592415 231.83298483 -8.56181064 228.03346116 -4.94180298 219.50778198 C-3.66165661 214.73982681 -3.69179828 210.22969633 -3.68115234 205.31298828 C-3.67110672 204.24897293 -3.6610611 203.18495758 -3.65071106 202.08869934 C-3.61989643 198.58257573 -3.60284846 195.07652843 -3.5859375 191.5703125 C-3.5672245 189.1350743 -3.54765099 186.69984258 -3.5272522 184.26461792 C-3.47593912 177.86303526 -3.43630881 171.46143158 -3.39910889 165.05975342 C-3.35906421 158.52415775 -3.30797394 151.98864946 -3.2578125 145.453125 C-3.16106289 132.63547915 -3.07627967 119.81778317 -3 107 C-2.34 107 -1.68 107 -1 107 C-1.00092179 106.45462617 -1.00184359 105.90925234 -1.00279331 105.34735203 C-1.02484999 92.09482535 -1.0413485 78.84230187 -1.05181217 65.58976078 C-1.05704166 59.18100872 -1.0641405 52.77226985 -1.07543945 46.36352539 C-1.08626599 40.18440559 -1.09227634 34.00529852 -1.09487724 27.82616997 C-1.09673192 25.4629439 -1.10035332 23.09971856 -1.10573006 20.73649788 C-1.11293738 17.43898104 -1.11399107 14.14151753 -1.11352539 10.84399414 C-1.11712067 9.85641113 -1.12071594 8.86882812 -1.12442017 7.85131836 C-1.1230455 6.95804337 -1.12167084 6.06476837 -1.12025452 5.14442444 C-1.12117631 4.36366578 -1.1220981 3.58290712 -1.12304783 2.77848911 C-1 1 -1 1 0 0 Z " fill="#0D6434" transform="translate(267,149)"/>
<path d="M0 0 C0.99 0 1.98 0 3 0 C3.09368469 14.03906126 3.16383044 28.07807363 3.20724869 42.11738396 C3.22809108 48.63696029 3.25634816 55.15632607 3.30175781 61.67578125 C3.34533405 67.97167139 3.36916228 74.26735947 3.37950897 80.56338882 C3.38687914 82.96107284 3.40127125 85.35874624 3.42292023 87.75634384 C3.45210987 91.12409809 3.45594938 94.49102559 3.45410156 97.85888672 C3.47567322 99.33380333 3.47567322 99.33380333 3.49768066 100.83851624 C3.44809425 109.23319582 1.4978628 116.52007805 -4.1875 122.875 C-7.88769961 126.24026775 -12.12376051 128.77418009 -17 130 C-19.26953125 129.59375 -19.26953125 129.59375 -21 129 C-20.12988281 128.65388672 -20.12988281 128.65388672 -19.2421875 128.30078125 C-10.93592415 124.83298483 -5.56181064 121.03346116 -1.94180298 112.50778198 C-0.66165661 107.73982681 -0.69179828 103.22969633 -0.68115234 98.31298828 C-0.67110672 97.24897293 -0.6610611 96.18495758 -0.65071106 95.08869934 C-0.61989643 91.58257573 -0.60284846 88.07652843 -0.5859375 84.5703125 C-0.5672245 82.1350743 -0.54765099 79.69984258 -0.5272522 77.26461792 C-0.47593912 70.86303526 -0.43630881 64.46143158 -0.39910889 58.05975342 C-0.35906421 51.52415775 -0.30797394 44.98864946 -0.2578125 38.453125 C-0.16106289 25.63547915 -0.07627967 12.81778317 0 0 Z " fill="#175A36" transform="translate(264,256)"/>
</svg>
