<?xml version="1.0" encoding="UTF-8"?>
<svg version="1.1" xmlns="http://www.w3.org/2000/svg" width="512" height="512">
<path d="M0 0 C1.185417 -0.00946191 1.185417 -0.00946191 2.39478183 -0.01911497 C3.25702782 -0.02097697 4.11927381 -0.02283896 5.00764847 -0.02475739 C5.92830447 -0.03055077 6.84896048 -0.03634416 7.79751515 -0.0423131 C10.88962889 -0.06038404 13.98172439 -0.07124756 17.07387161 -0.08200836 C19.28805584 -0.09318334 21.50223838 -0.10469666 23.71641922 -0.11652374 C30.99342369 -0.15307953 38.27044548 -0.17829682 45.54750443 -0.20114899 C46.78533959 -0.20509485 48.02317476 -0.20904072 49.29852009 -0.21310616 C60.97062507 -0.24951819 72.64273711 -0.28111653 84.31488037 -0.30221558 C87.01677083 -0.30718464 89.71866114 -0.31222901 92.4205513 -0.31735992 C93.09206975 -0.3186306 93.7635882 -0.31990127 94.45545569 -0.32121044 C105.33311226 -0.34256982 116.21046672 -0.39156786 127.0879713 -0.45160407 C138.26167641 -0.51276558 149.435274 -0.54685179 160.60915494 -0.55668879 C166.88059967 -0.56295089 173.15148829 -0.5811156 179.42277145 -0.62807465 C185.3228284 -0.671708 191.22202445 -0.68223913 197.12221527 -0.66744614 C199.28617211 -0.66777507 201.45016566 -0.68007289 203.61397552 -0.70529556 C206.57224949 -0.73795592 209.52736843 -0.72725068 212.48567581 -0.70590973 C213.76566047 -0.73547138 213.76566047 -0.73547138 215.0715034 -0.76563025 C221.04090727 -0.65712774 223.97527908 1.12979263 228.21291482 5.28128612 C228.80286064 5.89552004 229.39280646 6.50975395 230.00062943 7.14260101 C230.94300178 8.04344579 231.88537413 8.94429056 232.85630322 9.87243366 C233.73255132 10.74830474 234.60879942 11.62417582 235.51160049 12.52658844 C236.25583467 13.26848263 236.25583467 13.26848263 237.01510388 14.02536458 C238.64862651 15.654953 240.27861613 17.28802648 241.90858841 18.92116547 C243.09019066 20.10141041 244.27200505 21.28144301 245.45401382 22.46128082 C248.64178795 25.64452283 251.82642332 28.83088728 255.01034045 32.01798654 C258.34756639 35.3577544 261.68724293 38.69507031 265.02652359 42.03278351 C270.6257294 47.63017448 276.22283297 53.22966107 281.81874466 58.83034515 C288.29262186 65.30967962 294.77011516 71.78538227 301.24946731 78.2592414 C306.81746751 83.82270992 312.3835246 89.3881168 317.94794899 94.95516175 C321.26956792 98.2783411 324.59186227 101.60083763 327.91591072 104.92158699 C331.03476516 108.03756141 334.15117968 111.15595534 337.26569557 114.2762661 C338.41093684 115.42283357 339.55703724 116.56854361 340.70404053 117.71334839 C342.26452498 119.27111631 343.821922 120.83190554 345.37854385 122.3935318 C346.25215278 123.26751775 347.1257617 124.1415037 348.02584362 125.04197407 C351.15635025 128.37196893 351.12768807 130.30481179 351.13764381 134.78722858 C351.14525563 136.59950859 351.14525563 136.59950859 351.15302122 138.44840032 C351.15362295 139.8012859 351.15412201 141.15417153 351.15452957 142.50705719 C351.15854281 143.93495004 351.1629808 145.36284176 351.16780913 146.79073209 C351.17979695 150.72886227 351.18542823 154.6669802 351.18999028 158.60512507 C351.19593838 162.84737685 351.20755055 167.08961391 351.21828079 171.33185577 C351.24282843 181.58701088 351.25743821 191.84217087 351.27034086 202.09734634 C351.27405197 204.99420764 351.2780253 207.89106847 351.28209352 210.7879293 C351.30733625 228.77661554 351.32938978 246.76530252 351.34182167 264.75400257 C351.3447514 268.92300481 351.34771305 273.09200703 351.35072708 277.26100922 C351.35147313 278.29720212 351.35221918 279.33339502 351.35298784 280.40098771 C351.3656313 297.17276633 351.39883866 313.94443868 351.44052891 330.71616767 C351.48298313 347.93655344 351.506521 365.15688489 351.51174223 382.37732285 C351.5151531 392.04530758 351.52686936 401.71312647 351.55984497 411.38105965 C351.587895 419.61849064 351.59882329 427.85572181 351.58764951 436.09319685 C351.58247488 440.29335864 351.58527106 444.49310235 351.61011505 448.69320297 C351.63271337 452.54600128 351.63178674 456.39808378 351.61291118 460.25089552 C351.60881627 462.28917324 351.62917873 464.32745602 351.65069807 466.36562425 C351.53173557 480.28372724 346.90083129 490.79374571 337.41859818 500.81447601 C330.1834228 507.64476323 320.50429875 512.25553027 310.54719257 512.2796154 C309.43255888 512.28468994 308.31792519 512.28976449 307.16951472 512.2949928 C305.94493018 512.29549056 304.72034565 512.29598832 303.4586525 512.29650116 C302.1576704 512.30088341 300.8566883 512.30526567 299.5162825 512.30978072 C295.90191513 512.3217364 292.2875611 512.32739235 288.67317784 512.33196187 C284.77588536 512.33792193 280.87860879 512.34953091 276.98132706 512.36025238 C267.5664666 512.38476937 258.15160088 512.39940366 248.73671833 512.41231245 C246.07653045 512.41602526 243.41634309 512.41999843 240.75615573 512.42406511 C224.22984414 512.44930541 207.7035317 512.47135433 191.17720509 512.48379326 C187.34954767 512.48672287 183.52189029 512.48968454 179.69423294 512.49269867 C178.26724591 512.49381775 178.26724591 512.49381775 176.81143086 512.49495943 C161.41067841 512.50760506 146.01004161 512.54081765 130.60934318 512.5825005 C114.79010941 512.6249643 98.97093477 512.64849353 83.15164417 512.65371382 C74.27286864 512.65712318 65.39427376 512.66882198 56.51555443 512.70181656 C48.95156684 512.72987955 41.38779695 512.74078914 33.82376135 512.7296211 C29.96786664 512.72445011 26.11242735 512.72721852 22.25659943 512.75208664 C18.06590686 512.77888741 13.87620735 512.76646576 9.68545914 512.75060272 C8.4809511 512.76448481 7.27644306 512.7783669 6.03543478 512.79266965 C-7.5167353 512.66678237 -17.94300134 507.76603452 -27.67124557 498.56056976 C-35.2259775 490.55800579 -39.15508086 480.63037386 -39.13638496 469.78384495 C-39.13903679 469.03686316 -39.14168862 468.28988136 -39.1444208 467.52026376 C-39.15211446 465.003174 -39.152673 462.48613302 -39.15327072 459.96903229 C-39.15728531 458.15168235 -39.16172353 456.33433331 -39.16655028 454.51698536 C-39.17852222 449.51162576 -39.18416568 444.5062758 -39.18873143 439.50090468 C-39.19468524 434.10666815 -39.20629571 428.71244316 -39.21702194 423.31821442 C-39.24155209 410.28448405 -39.25617456 397.25074985 -39.26908201 384.21700349 C-39.27279367 380.5357918 -39.27676693 376.85458049 -39.28083467 373.17336917 C-39.30607231 350.31515074 -39.32812618 327.45693172 -39.34056282 304.59870243 C-39.34349254 299.3031953 -39.3464542 294.00768818 -39.34946823 288.71218109 C-39.35058731 286.73791156 -39.35058731 286.73791156 -39.35172899 284.7237578 C-39.36438048 263.40614489 -39.39760031 242.08863236 -39.43927006 220.77105499 C-39.48169858 198.88591486 -39.50525898 177.00081744 -39.51048338 155.11563629 C-39.51389658 142.82751011 -39.5256411 130.5395143 -39.55858612 118.2514286 C-39.5866004 107.78525103 -39.59757986 97.31923056 -39.58639066 86.85301841 C-39.5812075 81.5146771 -39.58406889 76.17666471 -39.6088562 70.83837128 C-39.63138397 65.94576443 -39.63058124 61.05372212 -39.61165233 56.16110515 C-39.60885728 54.39652895 -39.61442319 52.63191418 -39.62946527 50.86739988 C-39.75568601 35.08898641 -36.52892199 23.21333683 -25.41733932 11.47072601 C-18.79264626 5.21675786 -9.24699095 0.04638974 0 0 Z " fill="#4086F4" transform="translate(99.99937057495117,-0.14260101318359375)"/>
<path d="M0 0 C67.12165286 0 67.12165286 0 79.51097107 12.38398743 C80.00712719 12.87858355 80.5032833 13.37317968 81.01447445 13.88276356 C82.64799709 15.51235199 84.27798671 17.14542547 85.90795898 18.77856445 C87.08956124 19.9588094 88.27137562 21.138842 89.4533844 22.31867981 C92.64115852 25.50192182 95.82579389 28.68828627 99.00971103 31.87538552 C102.34693696 35.21515338 105.6866135 38.5524693 109.02589417 41.8901825 C114.62509997 47.48757347 120.22220354 53.08706006 125.81811523 58.68774414 C132.29199243 65.1670786 138.76948573 71.64278126 145.24883789 78.11664039 C150.81683808 83.68010891 156.38289518 89.24551579 161.94731957 94.81256074 C165.2689385 98.13574009 168.59123284 101.45823662 171.9152813 104.77898598 C175.03413573 107.89496039 178.15055026 111.01335433 181.26506615 114.13366508 C182.41030741 115.28023256 183.55640782 116.42594259 184.7034111 117.57074738 C186.26389555 119.1285153 187.82129257 120.68930453 189.37791443 122.25093079 C190.68832781 123.56190971 190.68832781 123.56190971 192.0252142 124.89937305 C195.15572083 128.22936792 195.12705864 130.16221077 195.13701439 134.64462757 C195.14208893 135.85281424 195.14716347 137.06100092 195.15239179 138.30579931 C195.15299352 139.65868489 195.15349259 141.01157052 195.15390015 142.36445618 C195.15791338 143.79234903 195.16235137 145.22024074 195.1671797 146.64813107 C195.17916752 150.58626126 195.18479881 154.52437919 195.18936086 158.46252406 C195.19530896 162.70477584 195.20692113 166.94701289 195.21765137 171.18925476 C195.242199 181.44440987 195.25680878 191.69956986 195.26971143 201.95474532 C195.27342254 204.85160663 195.27739587 207.74846746 195.2814641 210.64532828 C195.30670682 228.63401452 195.32876035 246.62270151 195.34119225 264.61140156 C195.34412197 268.7804038 195.34708362 272.94940602 195.35009766 277.1184082 C195.35084371 278.15460111 195.35158976 279.19079401 195.35235842 280.25838669 C195.36500187 297.03016531 195.39820923 313.80183767 195.43989949 330.57356665 C195.4823537 347.79395243 195.50589158 365.01428388 195.51111281 382.23472184 C195.51452367 391.90270657 195.52623993 401.57052546 195.55921555 411.23845863 C195.58726557 419.47588962 195.59819386 427.7131208 195.58702008 435.95059583 C195.58184546 440.15075763 195.58464163 444.35050134 195.60948563 448.55060196 C195.63208395 452.40340027 195.63115732 456.25548276 195.61228175 460.10829451 C195.60818684 462.14657222 195.6285493 464.18485501 195.65006864 466.22302324 C195.53110615 480.14112622 190.90020187 490.65114469 181.41796875 500.671875 C173.72528083 507.93407186 163.9302494 512.12847198 153.44476318 512.12025452 C152.78797711 512.12110894 152.13119103 512.12196337 151.45450234 512.12284368 C149.25577321 512.12448959 147.05712053 512.11899169 144.85839844 512.11352539 C143.28147381 512.1132433 141.70454906 512.11340168 140.12762451 512.1139679 C135.84699467 512.11425502 131.5663928 512.10837196 127.28576946 512.10139394 C122.81211679 512.09514631 118.33846349 512.09455548 113.86480713 512.09336853 C105.39343477 512.09025938 96.92207531 512.08205158 88.45070863 512.07201904 C77.00325337 512.05875599 65.55579459 512.05335463 54.10833359 512.04751682 C36.07221273 512.03811143 18.03611909 512.01818972 0 512 C0 481.97 0 451.94 0 421 C11.22 420.67 22.44 420.34 34 420 C39.72027392 417.38480407 39.72027392 417.38480407 43 413 C44.80038454 407.59884639 44.85842938 402.7828918 42.375 397.625 C38.78160462 393.65335248 35.52553045 392.17347595 30.19775391 391.56762695 C28.79103696 391.52669394 27.3838183 391.5008977 25.9765625 391.48828125 C25.23038666 391.47033005 24.48421082 391.45237885 23.71542358 391.43388367 C21.3520051 391.38006895 18.98878514 391.34597933 16.625 391.3125 C15.01429546 391.27930128 13.40361702 391.24480928 11.79296875 391.20898438 C7.86195521 391.1219434 3.9318209 391.06163395 0 391 C0 381.1 0 371.2 0 361 C4.22417725 360.97812622 4.22417725 360.97812622 8.53369141 360.95581055 C17.84169177 360.90545704 27.14952498 360.83886048 36.45736122 360.76428509 C42.10030309 360.71957168 47.7431726 360.68031751 53.38623047 360.65356445 C58.83284648 360.62754143 64.27918418 360.58714567 69.7256279 360.53681374 C71.80278434 360.52013834 73.87998892 360.50862826 75.95720291 360.50238609 C78.86841203 360.49275251 81.77890802 360.46470153 84.68994141 360.43237305 C85.54733917 360.43380814 86.40473694 360.43524323 87.28811646 360.4367218 C92.2613707 360.35869744 95.67856599 359.72795438 100 357 C103.79975621 352.80716556 104.35751391 348.76345063 104.27734375 343.28515625 C103.83767775 339.66255607 102.41791641 337.67243392 100 335 C94.86596584 331.72533707 90.58060115 331.55776733 84.68994141 331.56762695 C83.77222961 331.5574353 82.85451782 331.54724365 81.90899658 331.53674316 C78.88978939 331.50666183 75.87089974 331.49735456 72.8515625 331.48828125 C70.752624 331.47143098 68.65369557 331.45328027 66.55477905 331.43388367 C61.04094591 331.38641549 55.5271536 331.35658541 50.01318359 331.33044434 C44.38240496 331.30062288 38.75176696 331.25409794 33.12109375 331.20898438 C22.08078662 331.12298724 11.04049408 331.05717026 0 331 C0 321.1 0 311.2 0 301 C4.22417725 300.97812622 4.22417725 300.97812622 8.53369141 300.95581055 C17.84169177 300.90545704 27.14952498 300.83886048 36.45736122 300.76428509 C42.10030309 300.71957168 47.7431726 300.68031751 53.38623047 300.65356445 C58.83284648 300.62754143 64.27918418 300.58714567 69.7256279 300.53681374 C71.80278434 300.52013834 73.87998892 300.50862826 75.95720291 300.50238609 C78.86841203 300.49275251 81.77890802 300.46470153 84.68994141 300.43237305 C85.54733917 300.43380814 86.40473694 300.43524323 87.28811646 300.4367218 C92.2613707 300.35869744 95.67856599 299.72795438 100 297 C103.79975621 292.80716556 104.35751391 288.76345063 104.27734375 283.28515625 C103.83767775 279.66255607 102.41791641 277.67243392 100 275 C94.86596584 271.72533707 90.58060115 271.55776733 84.68994141 271.56762695 C83.77222961 271.5574353 82.85451782 271.54724365 81.90899658 271.53674316 C78.88978939 271.50666183 75.87089974 271.49735456 72.8515625 271.48828125 C70.752624 271.47143098 68.65369557 271.45328027 66.55477905 271.43388367 C61.04094591 271.38641549 55.5271536 271.35658541 50.01318359 271.33044434 C44.38240496 271.30062288 38.75176696 271.25409794 33.12109375 271.20898438 C22.08078662 271.12298724 11.04049408 271.05717026 0 271 C0 261.1 0 251.2 0 241 C4.22417725 240.97812622 4.22417725 240.97812622 8.53369141 240.95581055 C17.84169177 240.90545704 27.14952498 240.83886048 36.45736122 240.76428509 C42.10030309 240.71957168 47.7431726 240.68031751 53.38623047 240.65356445 C58.83284648 240.62754143 64.27918418 240.58714567 69.7256279 240.53681374 C71.80278434 240.52013834 73.87998892 240.50862826 75.95720291 240.50238609 C78.86841203 240.49275251 81.77890802 240.46470153 84.68994141 240.43237305 C85.54733917 240.43380814 86.40473694 240.43524323 87.28811646 240.4367218 C92.2613707 240.35869744 95.67856599 239.72795438 100 237 C103.79975621 232.80716556 104.35751391 228.76345063 104.27734375 223.28515625 C103.83767775 219.66255607 102.41791641 217.67243392 100 215 C70.16191844 200.08095922 33.35810177 211.35487342 0 211 C0 141.37 0 71.74 0 0 Z " fill="#4175DF" transform="translate(256,0)"/>
<path d="M0 0 C3.00602157 -0.52605377 5.14895557 -0.55309295 7.76104832 1.14450359 C9.92644718 3.0199385 11.96521133 4.98315212 14 7 C15.30123212 8.26576087 15.30123212 8.26576087 16.62875175 9.55709267 C19.74714759 12.6057029 22.82729319 15.69191354 25.90795898 18.77856445 C27.08956124 19.9588094 28.27137562 21.138842 29.4533844 22.31867981 C32.64115852 25.50192182 35.82579389 28.68828627 39.00971103 31.87538552 C42.34693696 35.21515338 45.6866135 38.5524693 49.02589417 41.8901825 C54.62509997 47.48757347 60.22220354 53.08706006 65.81811523 58.68774414 C72.29199243 65.1670786 78.76948573 71.64278126 85.24883789 78.11664039 C90.81683808 83.68010891 96.38289518 89.24551579 101.94731957 94.81256074 C105.2689385 98.13574009 108.59123284 101.45823662 111.9152813 104.77898598 C115.03413573 107.89496039 118.15055026 111.01335433 121.26506615 114.13366508 C122.41030741 115.28023256 123.55640782 116.42594259 124.7034111 117.57074738 C126.26389555 119.1285153 127.82129257 120.68930453 129.37791443 122.25093079 C130.68832781 123.56190971 130.68832781 123.56190971 132.0252142 124.89937305 C135.22864199 128.3069359 135.09966497 130.41541123 135 135 C120.60440871 135.1406299 106.2089251 135.24579471 91.8127861 135.31087303 C85.12721733 135.34171292 78.44214027 135.38446111 71.75683594 135.45263672 C65.29881521 135.51807848 58.84123854 135.55375908 52.38291168 135.56926346 C49.92543808 135.58030512 47.46798735 135.60186676 45.01070404 135.63438034 C19.0935672 135.96350291 19.0935672 135.96350291 8.89715576 127.19076538 C2.23038889 120.37075059 -0.44318263 112.10456875 -0.49768066 102.71159363 C-0.48329956 101.70961441 -0.46891846 100.70763519 -0.45410156 99.67529297 C-0.45468567 98.59118637 -0.45526978 97.50707977 -0.45587158 96.39012146 C-0.4531059 92.84047362 -0.42208474 89.29168694 -0.390625 85.7421875 C-0.38315725 83.2678371 -0.37746684 80.79348076 -0.37347412 78.31912231 C-0.35826005 71.83190351 -0.31901428 65.34504746 -0.2746582 58.85797119 C-0.23361439 52.22827767 -0.21544368 45.59853756 -0.1953125 38.96875 C-0.15251626 25.97901262 -0.08509359 12.98952568 0 0 Z " fill="#7FADF7" transform="translate(316,0)"/>
<path d="M0 0 C0.76945542 -0.0055344 1.53891085 -0.01106879 2.3316831 -0.0167709 C4.89434386 -0.03031818 7.45602061 -0.01544114 10.0186615 -0.00050354 C11.86215629 -0.00428885 13.70564824 -0.00979064 15.5491333 -0.01687622 C20.54495143 -0.03081944 25.54042473 -0.01966938 30.53622365 -0.00316501 C35.76779392 0.01070072 40.99934449 0.00422375 46.23092651 0.0007019 C55.01472013 -0.00199877 63.79837699 0.01146398 72.58213806 0.03465271 C82.73476271 0.06126979 92.88715884 0.06300636 103.03980643 0.05126435 C112.81139234 0.04048287 122.58289566 0.04667602 132.35447502 0.06081963 C136.51104626 0.06657537 140.66755698 0.06649999 144.8241291 0.06175423 C149.71862605 0.05697964 154.61287293 0.06710617 159.50732231 0.08870888 C161.30280082 0.09427003 163.09830339 0.09474821 164.89378357 0.08975601 C167.34605118 0.08379305 169.79755684 0.0963272 172.24975586 0.11352539 C172.95900225 0.10751535 173.66824865 0.1015053 174.39898735 0.09531313 C179.00781914 0.15402681 182.14268035 1.08780971 186.06138611 3.50120544 C190.29600078 8.1936163 191.3655167 11.00416535 191.27622986 17.18479919 C190.84058238 21.88187115 188.95831821 24.67154325 185.56138611 27.81370544 C181.30261679 30.68837474 177.56515362 30.6496487 172.61051941 30.64837646 C171.84518725 30.65205315 171.07985509 30.65572984 170.29133105 30.65951794 C167.71890776 30.67055813 165.14652486 30.67439918 162.57408142 30.6782074 C160.73280204 30.68447178 158.89152392 30.69111855 157.05024719 30.69812012 C152.0418545 30.71553163 147.03347135 30.72608223 142.02505589 30.73432565 C138.89640449 30.73947535 135.76775606 30.74555108 132.63910675 30.75183678 C122.85152468 30.77088904 113.06395017 30.78512027 103.27635312 30.79344875 C91.97588352 30.80322316 80.6756097 30.82954793 69.37520909 30.86994964 C60.64220107 30.90010157 51.9092492 30.91491673 43.17619014 30.91822976 C37.95958318 30.92058122 32.74318537 30.92955427 27.52663422 30.95469093 C22.61823113 30.97796057 17.71017505 30.9822093 12.80173111 30.97192955 C11.00181805 30.97143382 9.20188797 30.9777653 7.40202713 30.9914856 C4.94099869 31.00919386 2.48121708 31.00210433 0.02018738 30.98895264 C-0.68887465 30.99992188 -1.39793668 31.01089113 -2.12848544 31.02219278 C-7.5405864 30.95256301 -10.56033177 29.45009531 -14.93861389 26.50120544 C-17.77757103 23.05034276 -18.82398914 19.31790683 -19.43861389 14.93870544 C-18.83674994 10.80089077 -17.81343857 7.59218235 -14.93861389 4.50120544 C-9.87115402 1.1132389 -6.13981339 -0.08341109 0 0 Z " fill="#E2E6EA" transform="translate(169.93861389160156,330.49879455566406)"/>
<path d="M0 0 C0.76945542 -0.0055344 1.53891085 -0.01106879 2.3316831 -0.0167709 C4.89434386 -0.03031818 7.45602061 -0.01544114 10.0186615 -0.00050354 C11.86215629 -0.00428885 13.70564824 -0.00979064 15.5491333 -0.01687622 C20.54495143 -0.03081944 25.54042473 -0.01966938 30.53622365 -0.00316501 C35.76779392 0.01070072 40.99934449 0.00422375 46.23092651 0.0007019 C55.01472013 -0.00199877 63.79837699 0.01146398 72.58213806 0.03465271 C82.73476271 0.06126979 92.88715884 0.06300636 103.03980643 0.05126435 C112.81139234 0.04048287 122.58289566 0.04667602 132.35447502 0.06081963 C136.51104626 0.06657537 140.66755698 0.06649999 144.8241291 0.06175423 C149.71862605 0.05697964 154.61287293 0.06710617 159.50732231 0.08870888 C161.30280082 0.09427003 163.09830339 0.09474821 164.89378357 0.08975601 C167.34605118 0.08379305 169.79755684 0.0963272 172.24975586 0.11352539 C172.95900225 0.10751535 173.66824865 0.1015053 174.39898735 0.09531313 C179.00781914 0.15402681 182.14268035 1.08780971 186.06138611 3.50120544 C190.29600078 8.1936163 191.3655167 11.00416535 191.27622986 17.18479919 C190.84058238 21.88187115 188.95831821 24.67154325 185.56138611 27.81370544 C181.30261679 30.68837474 177.56515362 30.6496487 172.61051941 30.64837646 C171.84518725 30.65205315 171.07985509 30.65572984 170.29133105 30.65951794 C167.71890776 30.67055813 165.14652486 30.67439918 162.57408142 30.6782074 C160.73280204 30.68447178 158.89152392 30.69111855 157.05024719 30.69812012 C152.0418545 30.71553163 147.03347135 30.72608223 142.02505589 30.73432565 C138.89640449 30.73947535 135.76775606 30.74555108 132.63910675 30.75183678 C122.85152468 30.77088904 113.06395017 30.78512027 103.27635312 30.79344875 C91.97588352 30.80322316 80.6756097 30.82954793 69.37520909 30.86994964 C60.64220107 30.90010157 51.9092492 30.91491673 43.17619014 30.91822976 C37.95958318 30.92058122 32.74318537 30.92955427 27.52663422 30.95469093 C22.61823113 30.97796057 17.71017505 30.9822093 12.80173111 30.97192955 C11.00181805 30.97143382 9.20188797 30.9777653 7.40202713 30.9914856 C4.94099869 31.00919386 2.48121708 31.00210433 0.02018738 30.98895264 C-0.68887465 30.99992188 -1.39793668 31.01089113 -2.12848544 31.02219278 C-7.5405864 30.95256301 -10.56033177 29.45009531 -14.93861389 26.50120544 C-17.77757103 23.05034276 -18.82398914 19.31790683 -19.43861389 14.93870544 C-18.83674994 10.80089077 -17.81343857 7.59218235 -14.93861389 4.50120544 C-9.87115402 1.1132389 -6.13981339 -0.08341109 0 0 Z " fill="#E2E6EA" transform="translate(169.93861389160156,270.49879455566406)"/>
<path d="M0 0 C0.76945542 -0.0055344 1.53891085 -0.01106879 2.3316831 -0.0167709 C4.89434386 -0.03031818 7.45602061 -0.01544114 10.0186615 -0.00050354 C11.86215629 -0.00428885 13.70564824 -0.00979064 15.5491333 -0.01687622 C20.54495143 -0.03081944 25.54042473 -0.01966938 30.53622365 -0.00316501 C35.76779392 0.01070072 40.99934449 0.00422375 46.23092651 0.0007019 C55.01472013 -0.00199877 63.79837699 0.01146398 72.58213806 0.03465271 C82.73476271 0.06126979 92.88715884 0.06300636 103.03980643 0.05126435 C112.81139234 0.04048287 122.58289566 0.04667602 132.35447502 0.06081963 C136.51104626 0.06657537 140.66755698 0.06649999 144.8241291 0.06175423 C149.71862605 0.05697964 154.61287293 0.06710617 159.50732231 0.08870888 C161.30280082 0.09427003 163.09830339 0.09474821 164.89378357 0.08975601 C167.34605118 0.08379305 169.79755684 0.0963272 172.24975586 0.11352539 C172.95900225 0.10751535 173.66824865 0.1015053 174.39898735 0.09531313 C179.00781914 0.15402681 182.14268035 1.08780971 186.06138611 3.50120544 C190.29600078 8.1936163 191.3655167 11.00416535 191.27622986 17.18479919 C190.84058238 21.88187115 188.95831821 24.67154325 185.56138611 27.81370544 C181.30261679 30.68837474 177.56515362 30.6496487 172.61051941 30.64837646 C171.84518725 30.65205315 171.07985509 30.65572984 170.29133105 30.65951794 C167.71890776 30.67055813 165.14652486 30.67439918 162.57408142 30.6782074 C160.73280204 30.68447178 158.89152392 30.69111855 157.05024719 30.69812012 C152.0418545 30.71553163 147.03347135 30.72608223 142.02505589 30.73432565 C138.89640449 30.73947535 135.76775606 30.74555108 132.63910675 30.75183678 C122.85152468 30.77088904 113.06395017 30.78512027 103.27635312 30.79344875 C91.97588352 30.80322316 80.6756097 30.82954793 69.37520909 30.86994964 C60.64220107 30.90010157 51.9092492 30.91491673 43.17619014 30.91822976 C37.95958318 30.92058122 32.74318537 30.92955427 27.52663422 30.95469093 C22.61823113 30.97796057 17.71017505 30.9822093 12.80173111 30.97192955 C11.00181805 30.97143382 9.20188797 30.9777653 7.40202713 30.9914856 C4.94099869 31.00919386 2.48121708 31.00210433 0.02018738 30.98895264 C-0.68887465 30.99992188 -1.39793668 31.01089113 -2.12848544 31.02219278 C-7.5405864 30.95256301 -10.56033177 29.45009531 -14.93861389 26.50120544 C-17.77757103 23.05034276 -18.82398914 19.31790683 -19.43861389 14.93870544 C-18.83674994 10.80089077 -17.81343857 7.59218235 -14.93861389 4.50120544 C-9.87115402 1.1132389 -6.13981339 -0.08341109 0 0 Z " fill="#E2E6EA" transform="translate(169.93861389160156,210.49879455566406)"/>
<path d="M0 0 C1.23984146 -0.00540298 2.47968292 -0.01080597 3.75709534 -0.01637268 C7.14163043 -0.02670606 10.52518108 -0.01919494 13.90962911 -0.00266147 C17.4595673 0.01124006 21.00947735 0.00472328 24.55943298 0.00120544 C30.51854646 -0.00149232 36.47745802 0.01194254 42.43652344 0.03515625 C49.31728622 0.06177561 56.19771179 0.06350766 63.07850844 0.05176789 C69.71056481 0.04097442 76.34249969 0.04718864 82.97454643 0.06132317 C85.79140547 0.06706818 88.60817518 0.06701206 91.42503548 0.06225777 C95.36030888 0.05658249 99.29524724 0.07584166 103.23046875 0.09765625 C104.39479431 0.0931546 105.55911987 0.08865295 106.75872803 0.08401489 C112.39966483 0.13598135 116.74235307 0.19119099 121.55053711 3.50170898 C125.78515179 8.19411984 126.8546677 11.00466889 126.76538086 17.18530273 C126.32973338 21.88237469 124.44746921 24.67204679 121.05053711 27.81420898 C117.39703726 30.28032138 114.6804564 30.629151 110.37750244 30.64888 C109.30648285 30.65603531 108.23546326 30.66319061 107.13198853 30.67056274 C105.95687714 30.67325165 104.78176575 30.67594055 103.57104492 30.67871094 C101.71456833 30.68856773 101.71456833 30.68856773 99.82058716 30.69862366 C95.71494303 30.71837347 91.60933797 30.73002472 87.50366211 30.73999023 C86.08883393 30.74403864 84.67400594 30.74815559 83.25917816 30.75234032 C76.61114081 30.77138829 69.96311452 30.78561969 63.31505513 30.79395229 C55.64817619 30.80372121 47.98158623 30.83003304 40.31480908 30.87045318 C34.38432488 30.90064331 28.45392337 30.91542392 22.52336383 30.9187333 C18.98345534 30.92108066 15.44385571 30.92999952 11.90402985 30.95519447 C7.95179565 30.98287051 3.99993967 30.97863515 0.04760742 30.97167969 C-1.11940704 30.98448975 -2.28642151 30.9972998 -3.48880005 31.01049805 C-10.03570766 30.96849437 -14.1391443 30.44065848 -19.44946289 26.50170898 C-22.28842003 23.0508463 -23.33483813 19.31841037 -23.94946289 14.93920898 C-23.34759894 10.80139431 -22.32428757 7.59268589 -19.44946289 4.50170898 C-13.14302613 -0.13615889 -7.66332507 -0.06374318 0 0 Z " fill="#FEF4F4" transform="translate(174.449462890625,390.498291015625)"/>
<path d="M0 0 C0.91785782 -0.00058411 1.83571564 -0.00116821 2.78138733 -0.00177002 C5.7954883 0.00100218 8.80858295 0.03205336 11.82250977 0.06347656 C13.92000285 0.07094202 16.01750293 0.07663351 18.11500549 0.08062744 C23.62083377 0.09585967 29.12623628 0.13512096 34.63189697 0.17944336 C40.25592287 0.22044797 45.88001792 0.23864955 51.50415039 0.25878906 C62.52845556 0.30161745 73.55233368 0.37194783 84.57641602 0.45410156 C84.57641602 10.35410156 84.57641602 20.25410156 84.57641602 30.45410156 C72.44124516 30.54453535 60.30629878 30.61789436 48.17086697 30.66135025 C42.53565877 30.68220879 36.90069343 30.7104952 31.265625 30.75585938 C25.82561423 30.79937831 20.3858368 30.82325171 14.94566536 30.83361053 C12.87205394 30.84099099 10.79845502 30.85540336 8.72494316 30.87702179 C5.81634987 30.90613578 2.90871599 30.91005417 0 30.90820312 C-1.28070374 30.92977478 -1.28070374 30.92977478 -2.58728027 30.95178223 C-8.34750749 30.91221769 -11.67554635 29.75266574 -16.42358398 26.45410156 C-19.26254112 23.00323887 -20.30895923 19.27080295 -20.92358398 14.89160156 C-20.32172003 10.75378689 -19.29840866 7.54507847 -16.42358398 4.45410156 C-10.79122069 0.5667736 -6.75799012 -0.11382885 0 0 Z " fill="#FEF4F4" transform="translate(171.423583984375,330.5458984375)"/>
<path d="M0 0 C0.91785782 -0.00058411 1.83571564 -0.00116821 2.78138733 -0.00177002 C5.7954883 0.00100218 8.80858295 0.03205336 11.82250977 0.06347656 C13.92000285 0.07094202 16.01750293 0.07663351 18.11500549 0.08062744 C23.62083377 0.09585967 29.12623628 0.13512096 34.63189697 0.17944336 C40.25592287 0.22044797 45.88001792 0.23864955 51.50415039 0.25878906 C62.52845556 0.30161745 73.55233368 0.37194783 84.57641602 0.45410156 C84.57641602 10.35410156 84.57641602 20.25410156 84.57641602 30.45410156 C72.44124516 30.54453535 60.30629878 30.61789436 48.17086697 30.66135025 C42.53565877 30.68220879 36.90069343 30.7104952 31.265625 30.75585938 C25.82561423 30.79937831 20.3858368 30.82325171 14.94566536 30.83361053 C12.87205394 30.84099099 10.79845502 30.85540336 8.72494316 30.87702179 C5.81634987 30.90613578 2.90871599 30.91005417 0 30.90820312 C-1.28070374 30.92977478 -1.28070374 30.92977478 -2.58728027 30.95178223 C-8.34750749 30.91221769 -11.67554635 29.75266574 -16.42358398 26.45410156 C-19.26254112 23.00323887 -20.30895923 19.27080295 -20.92358398 14.89160156 C-20.32172003 10.75378689 -19.29840866 7.54507847 -16.42358398 4.45410156 C-10.79122069 0.5667736 -6.75799012 -0.11382885 0 0 Z " fill="#FEF4F4" transform="translate(171.423583984375,270.5458984375)"/>
<path d="M0 0 C0.91785782 -0.00058411 1.83571564 -0.00116821 2.78138733 -0.00177002 C5.7954883 0.00100218 8.80858295 0.03205336 11.82250977 0.06347656 C13.92000285 0.07094202 16.01750293 0.07663351 18.11500549 0.08062744 C23.62083377 0.09585967 29.12623628 0.13512096 34.63189697 0.17944336 C40.25592287 0.22044797 45.88001792 0.23864955 51.50415039 0.25878906 C62.52845556 0.30161745 73.55233368 0.37194783 84.57641602 0.45410156 C84.57641602 10.35410156 84.57641602 20.25410156 84.57641602 30.45410156 C72.44124516 30.54453535 60.30629878 30.61789436 48.17086697 30.66135025 C42.53565877 30.68220879 36.90069343 30.7104952 31.265625 30.75585938 C25.82561423 30.79937831 20.3858368 30.82325171 14.94566536 30.83361053 C12.87205394 30.84099099 10.79845502 30.85540336 8.72494316 30.87702179 C5.81634987 30.90613578 2.90871599 30.91005417 0 30.90820312 C-1.28070374 30.92977478 -1.28070374 30.92977478 -2.58728027 30.95178223 C-8.34750749 30.91221769 -11.67554635 29.75266574 -16.42358398 26.45410156 C-19.26254112 23.00323887 -20.30895923 19.27080295 -20.92358398 14.89160156 C-20.32172003 10.75378689 -19.29840866 7.54507847 -16.42358398 4.45410156 C-10.79122069 0.5667736 -6.75799012 -0.11382885 0 0 Z " fill="#FEF4F4" transform="translate(171.423583984375,210.5458984375)"/>
<path d="M0 0 C4.73281335 -0.06907349 9.46386056 -0.12874284 14.19677734 -0.16479492 C15.80491072 -0.17983176 17.41300344 -0.20026672 19.02099609 -0.22631836 C21.33962064 -0.26292822 23.65770049 -0.27977722 25.9765625 -0.29296875 C27.04567368 -0.31619453 27.04567368 -0.31619453 28.13638306 -0.33988953 C32.84590825 -0.34145828 36.00372513 0.5175551 40 3 C44.23461468 7.69241086 45.3041306 10.5029599 45.21484375 16.68359375 C44.77919627 21.3806657 42.8969321 24.17033781 39.5 27.3125 C35.15716189 30.24391573 31.319608 30.13344862 26.26953125 30.09765625 C25.51911057 30.0962413 24.76868988 30.09482635 23.99552917 30.09336853 C21.6011454 30.0877756 19.20685547 30.07522444 16.8125 30.0625 C15.18815239 30.05748408 13.56380332 30.05292134 11.93945312 30.04882812 C7.95957025 30.0386598 3.97989007 30.01908312 0 30 C0 20.1 0 10.2 0 0 Z " fill="#E2E6EA" transform="translate(256,391)"/>
</svg>
