<?xml version="1.0" encoding="UTF-8"?>
<svg version="1.1" xmlns="http://www.w3.org/2000/svg" width="512" height="512">
<path d="M0 0 C1.19029312 -0.01052147 1.19029312 -0.01052147 2.40463257 -0.02125549 C4.95340726 -0.03866384 7.50194927 -0.04510862 10.05078125 -0.046875 C10.92354706 -0.04754974 11.79631287 -0.04822449 12.69552612 -0.04891968 C26.13910388 -0.03241465 39.15023068 0.53710594 52.36328125 3.203125 C53.25144531 3.37473145 54.13960938 3.54633789 55.0546875 3.72314453 C98.80306568 12.32976113 141.05626355 33.06612274 172.36328125 65.203125 C174.74236188 67.59620022 177.11919802 69.97451183 179.58203125 72.28125 C187.51186947 79.83089049 193.93795014 88.36957896 200.36328125 97.203125 C201.02046143 98.09330322 201.02046143 98.09330322 201.69091797 99.00146484 C219.78029945 123.72098852 231.9660337 153.33192922 238.36328125 183.203125 C238.62077148 184.27183838 238.87826172 185.34055176 239.14355469 186.44165039 C242.02351242 199.97419851 241.89085447 213.62650045 241.86425781 227.40112305 C241.85956839 230.21178253 241.8732793 233.02130755 241.90527344 235.83178711 C242.60843302 298.37595887 217.19831921 353.77201087 174.09033203 398.43994141 C159.68384825 413.14783311 142.978497 424.67529643 125.36328125 435.203125 C124.42331299 435.76725098 124.42331299 435.76725098 123.46435547 436.34277344 C72.79575502 466.26351615 8.48225087 472.2277192 -47.94921875 457.890625 C-85.09407198 447.96327002 -119.07264558 430.17567493 -147.0234375 403.640625 C-148.89904308 401.89118123 -150.76254498 400.25903337 -152.74609375 398.64453125 C-155.18776187 396.58231155 -157.17518389 394.59385279 -159.19921875 392.140625 C-161.05744699 389.89025267 -162.74246191 388.12263141 -165.07421875 386.34765625 C-168.06817609 383.84204256 -169.91538463 381.20099665 -172.07421875 377.953125 C-175.12136575 373.41144014 -178.24892112 368.98388785 -181.640625 364.69140625 C-182.63671875 363.203125 -182.63671875 363.203125 -182.63671875 361.203125 C-183.49147797 361.21422806 -184.34623718 361.22533112 -185.22689819 361.23677063 C-193.31757418 361.3373291 -201.40803758 361.4132699 -209.49919701 361.46218586 C-213.65810374 361.48818052 -217.81649025 361.52339017 -221.97509766 361.58032227 C-225.99518505 361.63500795 -230.01477493 361.66462156 -234.03520584 361.67751122 C-235.562118 361.68668611 -237.08900568 361.70460155 -238.61570358 361.73177528 C-247.45445159 361.88271118 -255.29673037 361.73001089 -262.63671875 356.203125 C-266.81736746 351.69815269 -270.87625202 346.5670295 -270.89957428 340.20934105 C-270.90725657 339.42029644 -270.91493886 338.63125184 -270.92285395 337.81829679 C-270.92112098 336.95741504 -270.91938802 336.09653329 -270.91760254 335.20956421 C-270.92354478 334.29031933 -270.92948703 333.37107446 -270.93560934 332.42397368 C-270.9529849 329.33648614 -270.95599993 326.24915368 -270.95898438 323.16162109 C-270.96824076 320.95068022 -270.97829008 318.73974254 -270.98907471 316.52880859 C-271.01532961 310.5161703 -271.02821433 304.50357669 -271.03709602 298.49089003 C-271.04295734 294.73387647 -271.051167 290.97687512 -271.06010437 287.21986771 C-271.08432384 276.81075092 -271.10508646 266.40164275 -271.11185455 255.9924984 C-271.11229369 255.32647436 -271.11273282 254.66045032 -271.11318526 253.97424374 C-271.11362181 253.30665249 -271.11405837 252.63906123 -271.11450815 251.95123994 C-271.11539507 250.59851543 -271.1162882 249.24579091 -271.1171875 247.89306641 C-271.11763036 247.22207258 -271.11807322 246.55107875 -271.1185295 245.85975178 C-271.12641916 234.99640655 -271.16130772 224.13333017 -271.20790654 213.27008872 C-271.25540071 202.10765568 -271.27974601 190.94532048 -271.28259039 179.78277647 C-271.28468546 173.51917435 -271.29647799 167.25595126 -271.33222961 160.99244308 C-271.36522288 155.09734565 -271.36948728 149.20291146 -271.3519516 143.30775452 C-271.35041242 141.14788154 -271.35907595 138.98797269 -271.3788681 136.82818985 C-271.56155504 115.64486602 -271.56155504 115.64486602 -264.63671875 108.203125 C-262.1875 105.94921875 -262.1875 105.94921875 -259.94921875 104.640625 C-259.20285156 104.18558594 -258.45648438 103.73054688 -257.6875 103.26171875 C-253.58218982 101.14259673 -250.37591035 101.10791502 -245.8137207 101.17236328 C-244.38398155 101.18846623 -242.9542378 101.20416374 -241.52449036 101.21951294 C-240.76729013 101.22905125 -240.01008991 101.23858955 -239.22994423 101.2484169 C-234.36746349 101.30007935 -229.50463037 101.29419574 -224.64191914 101.29977608 C-220.37288126 101.30798627 -216.10566875 101.3357098 -211.8371582 101.40527344 C-207.70262098 101.47152599 -203.57098873 101.48371078 -199.43602562 101.46001816 C-197.86554318 101.46062646 -196.29493792 101.48058972 -194.72496986 101.52078629 C-185.66594499 101.90747849 -185.66594499 101.90747849 -177.94207764 97.79400635 C-175.91095267 95.01436325 -174.25964811 92.23392119 -172.63671875 89.203125 C-171.72825217 87.99737653 -170.78720674 86.81472479 -169.80078125 85.671875 C-168.54394531 84.20234375 -168.54394531 84.20234375 -167.26171875 82.703125 C-165.39750972 80.5268558 -163.52285628 78.36041552 -161.63671875 76.203125 C-161.19505371 75.6968457 -160.75338867 75.19056641 -160.29833984 74.66894531 C-155.07486205 68.71320428 -149.71573101 63.27074292 -143.63671875 58.203125 C-142.70472656 57.38328125 -141.77273437 56.5634375 -140.8125 55.71875 C-106.34749651 25.53545004 -62.94229658 6.959135 -17.63671875 1.203125 C-16.9510231 1.11579605 -16.26532745 1.0284671 -15.55885315 0.93849182 C-10.35746342 0.31668258 -5.23628514 0.03124036 0 0 Z " fill="#C8421D" transform="translate(270.63671875,24.796875)"/>
<path d="M0 0 C75.57 0 151.14 0 229 0 C229 38.51735016 229 38.51735016 224 58 C223.75362793 58.97195313 223.50725586 59.94390625 223.25341797 60.9453125 C207.38169525 121.68970066 166.27073211 171.16246004 113 203 C112.37335449 203.37608398 111.74670898 203.75216797 111.10107422 204.13964844 C60.43247377 234.06039115 -3.88103038 240.0245942 -60.3125 225.6875 C-97.45735323 215.76014502 -131.43592683 197.97254993 -159.38671875 171.4375 C-161.26003215 169.69019423 -163.12196346 168.05620447 -165.1015625 166.44140625 C-167.54953567 164.37943424 -169.61803463 162.36393608 -171.6875 159.9375 C-172.52861328 158.96103516 -172.52861328 158.96103516 -173.38671875 157.96484375 C-174.98559881 156.01753947 -176.49448121 154.0198803 -178 152 C-177.19492823 151.99945523 -176.38985645 151.99891047 -175.56038857 151.99834919 C-155.94553685 151.98336341 -136.33092025 151.94084394 -116.71619606 151.86790943 C-107.23053049 151.83329809 -97.74500965 151.80790897 -88.25927734 151.80444336 C-79.98876297 151.8013981 -71.71850663 151.78083217 -63.44809186 151.73947543 C-59.07137528 151.71819464 -54.69502509 151.70551938 -50.31825638 151.71384621 C-46.1927139 151.7214177 -42.06791187 151.705439 -37.94250488 151.67193985 C-36.43414873 151.66374367 -34.92571841 151.66391263 -33.41736984 151.67340279 C-23.80782107 151.72784383 -15.46871519 151.04726491 -8.09819984 144.24476337 C-0.94211953 136.69696239 -0.55588298 129.06531219 -0.56762695 119.08813477 C-0.55735316 117.77888251 -0.54707937 116.46963026 -0.53649426 115.1207037 C-0.50912024 111.59477602 -0.49942904 108.06901201 -0.49352264 104.54299164 C-0.48525604 101.2284208 -0.46087933 97.9139841 -0.43786621 94.5994873 C-0.37997476 84.92057445 -0.34779197 75.24152164 -0.3125 65.5625 C-0.209375 43.926875 -0.10625 22.29125 0 0 Z " fill="#C8421D" transform="translate(283,257)"/>
<path d="M0 0 C3.04387788 -0.01301984 6.08769943 -0.02252788 9.1315918 -0.0300293 C9.98841301 -0.0340551 10.84523422 -0.0380809 11.72801971 -0.0422287 C17.83592457 -0.05351127 23.76929982 0.25600883 29.8125 1.1875 C30.71863037 1.3205957 31.62476074 1.45369141 32.55834961 1.59082031 C80.42697159 8.96855465 126.92325412 30.01984092 161 65 C163.37908063 67.39307522 165.75591677 69.77138683 168.21875 72.078125 C176.14858822 79.62776549 182.57466889 88.16645396 189 97 C189.43812012 97.59345215 189.87624023 98.1869043 190.32763672 98.79833984 C208.03753687 122.99929424 219.86806256 151.73758941 226.51220703 180.87353516 C226.96872318 182.86365312 227.46535155 184.84445006 227.96484375 186.82421875 C231.31661035 202.10024258 230 215.71446839 230 232 C154.43 232 78.86 232 1 232 C0.39982194 177.9839744 -0.1497278 124.00750094 -0.06866455 69.99438477 C-0.05852467 62.82002445 -0.05475657 55.64565886 -0.05032361 48.47129321 C-0.04021059 32.31418533 -0.02295302 16.15709511 0 0 Z " fill="#FE8E69" transform="translate(282,25)"/>
<path d="M0 0 C0.91330078 0.00451172 1.82660156 0.00902344 2.76757812 0.01367188 C4.99095738 0.0253126 7.21419121 0.04166149 9.4375 0.0625 C9.61058307 21.85411901 9.77680424 43.64578632 9.9375 65.4375 C9.94344854 66.24310521 9.94939708 67.04871042 9.95552588 67.87872791 C10.27032627 110.56509959 10.53857042 153.2496828 10.5 195.9375 C10.49914398 196.89214897 10.49828796 197.84679794 10.49740601 198.83037567 C10.48667806 209.90777724 10.46675757 220.98513243 10.4375 232.0625 C3.8375 232.0625 -2.7625 232.0625 -9.5625 232.0625 C-9.58231934 228.83275391 -9.60213867 225.60300781 -9.62255859 222.27539062 C-9.68951886 211.59440515 -9.76715774 200.91351642 -9.85002708 190.23264313 C-9.89993474 183.75798172 -9.94626544 177.2833362 -9.984375 170.80859375 C-10.0212974 164.55803738 -10.06767657 158.30761565 -10.12056351 152.05717468 C-10.13907044 149.67464057 -10.154192 147.29207763 -10.16584396 144.90950012 C-10.18276954 141.56778224 -10.2118204 138.22637024 -10.24365234 134.88476562 C-10.24581253 133.90364807 -10.24797272 132.92253052 -10.25019836 131.91168213 C-10.36577769 122.38944731 -11.90730668 115.17612706 -18.5625 108.0625 C-24.18267511 103.70399685 -28.87291829 101.81897046 -35.97224426 101.7840271 C-37.26648315 101.77286362 -38.56072205 101.76170013 -39.8941803 101.75019836 C-41.32113618 101.74783362 -42.74809239 101.74565793 -44.17504883 101.74365234 C-45.68316178 101.73435054 -47.1912696 101.7241815 -48.69937134 101.71321106 C-52.78777695 101.68592532 -56.87614814 101.67076589 -60.96462083 101.65778303 C-65.23944943 101.64214626 -69.51420779 101.61535777 -73.78898621 101.5897522 C-81.88134179 101.5429741 -89.9737106 101.50622529 -98.06613225 101.47307932 C-107.2801429 101.4348511 -116.49408299 101.38544277 -125.70803416 101.33509517 C-144.65947112 101.23178972 -163.61095116 101.14252479 -182.5625 101.0625 C-177.16765972 91.47081306 -170.09002196 83.51866357 -162.68359375 75.40625 C-160.74418497 73.26325688 -158.86920701 71.07905362 -157 68.875 C-153.49449779 64.86643028 -149.63146726 61.48505942 -145.5625 58.0625 C-144.62664062 57.23878906 -143.69078125 56.41507813 -142.7265625 55.56640625 C-108.24193665 25.38011653 -64.87521643 6.84992534 -19.5625 1.0625 C-18.89914642 0.97353958 -18.23579285 0.88457916 -17.55233765 0.79292297 C-11.68148332 0.06264931 -5.91091438 -0.05637703 0 0 Z " fill="#ED6B47" transform="translate(272.5625,24.9375)"/>
<path d="M0 0 C90.23457792 0 90.23457792 0 105.4140625 14.25390625 C116.28740454 26.22529515 118.97313869 37.845568 118.4453125 53.66015625 C117.66462929 66.08348654 111.75549292 75.74496654 102.8125 84.1875 C87.51806985 96.42304412 69.68056305 96.43289034 51.125 96.1875 C44.48375 96.125625 37.8425 96.06375 31 96 C31 114.15 31 132.3 31 151 C20.77 151 10.54 151 0 151 C0 101.17 0 51.34 0 0 Z " fill="#FEFCFB" transform="translate(82,178)"/>
<path d="M0 0 C0.33 0 0.66 0 1 0 C1 35.64 1 71.28 1 108 C7.6 108 14.2 108 21 108 C21.11595028 125.03790697 21.20507761 142.07565536 21.25906086 159.11386681 C21.28479712 167.02575523 21.31985933 174.93739336 21.37719727 182.84912109 C21.42717331 189.7483375 21.45932428 196.64737257 21.47044247 203.54676497 C21.47693742 207.19701769 21.49210489 210.8467518 21.52865028 214.49683762 C21.5692031 218.58064114 21.56994039 222.66355414 21.56762695 226.74755859 C21.59459152 228.54507568 21.59459152 228.54507568 21.62210083 230.37890625 C21.56995229 238.9099487 19.93362297 245.75894088 14.01002979 252.14549828 C8.13566687 257.72995563 2.2323089 260.35692757 -5.86889648 260.42805481 C-6.85051207 260.44248321 -6.85051207 260.44248321 -7.85195827 260.45720309 C-10.02510797 260.4853565 -12.19778043 260.49244228 -14.37109375 260.49926758 C-15.93711488 260.51480673 -17.50312486 260.53150494 -19.06912231 260.54927063 C-23.30869463 260.59274118 -27.54813843 260.61632389 -31.78789139 260.63349748 C-34.43884381 260.64453685 -37.0897605 260.65882361 -39.74069214 260.67401695 C-48.04177571 260.72035501 -56.34277345 260.75394978 -64.64397144 260.7700327 C-74.21532995 260.78878756 -83.785163 260.85029612 -93.35602856 260.94853479 C-100.76431037 261.02194248 -108.17215955 261.05691011 -115.58080006 261.06289595 C-120.00199954 261.0673395 -124.42168634 261.08805151 -128.84249878 261.14899635 C-132.99979847 261.20527977 -137.1545077 261.21377438 -141.31206894 261.18595695 C-142.83469124 261.18392251 -144.35744895 261.19890566 -145.87970352 261.2324295 C-157.3465169 261.47037254 -157.3465169 261.47037254 -161.43942261 257.83072472 C-163.26830212 255.28386535 -164.69083412 252.84462807 -166 250 C-166.47639671 248.97772418 -166.47639671 248.97772418 -166.9624176 247.93479633 C-167.67254689 246.30298056 -168.33905957 244.65235107 -169 243 C-169.98244845 241.65368175 -170.97676564 240.31558703 -172 239 C-172 238.34 -172 237.68 -172 237 C-171.22585062 236.99945523 -170.45170124 236.99891047 -169.65409279 236.99834919 C-150.7903044 236.98336166 -131.92676044 236.94083518 -113.06310463 236.86790943 C-103.94064299 236.83330201 -94.8183318 236.80790949 -85.69580078 236.80444336 C-77.74170798 236.80139754 -69.7878834 236.7808243 -61.83389413 236.73947543 C-57.62484749 236.71819955 -53.41618166 236.70551679 -49.20708084 236.71384621 C-45.23911592 236.72142091 -41.27192038 236.70542643 -37.30409622 236.67193985 C-35.85379299 236.66374746 -34.40341266 236.66390811 -32.95311737 236.67340279 C-23.41534521 236.72962405 -15.36033477 235.94164646 -8.09604836 229.24476337 C-2.09497224 222.90631094 -0.55151758 216.37695194 -0.60127258 207.9200592 C-0.59462576 207.02794737 -0.58797893 206.13583553 -0.58113068 205.21669 C-0.5625383 202.23947615 -0.56510346 199.26266552 -0.56762695 196.28540039 C-0.55860751 194.14645827 -0.54827985 192.00752133 -0.53674316 189.86859131 C-0.50916858 184.06959033 -0.49988797 178.27068742 -0.49388909 172.47162938 C-0.48450669 166.40840981 -0.45830336 160.34526353 -0.43388367 154.28208923 C-0.39021141 142.80402188 -0.36166885 131.32596875 -0.33856028 119.84784359 C-0.31151256 106.7789639 -0.26760074 93.71015791 -0.22227156 80.64133084 C-0.12941484 53.76092718 -0.05773874 26.88050041 0 0 Z " fill="#A03517" transform="translate(262,149)"/>
<path d="M0 0 C6.27 -0.0825 12.54 -0.165 19 -0.25 C20.96324219 -0.28641602 22.92648438 -0.32283203 24.94921875 -0.36035156 C26.52863476 -0.3720486 28.10806295 -0.38223801 29.6875 -0.390625 C30.88922852 -0.4213208 30.88922852 -0.4213208 32.11523438 -0.45263672 C38.92421404 -0.45679869 44.0639668 1.47317003 49.2421875 5.9296875 C54.97486885 12.75953274 56.4824621 18.03103919 56.31640625 26.96484375 C55.58369435 33.99345051 52.19237935 40.24952527 47 45 C37.63520384 50.19106147 27.64966712 49.46156439 17.3125 49.25 C11.599375 49.1675 5.88625 49.085 0 49 C0 32.83 0 16.66 0 0 Z " fill="#C8421D" transform="translate(114,202)"/>
<path d="M0 0 C7.95264901 1.13609272 7.95264901 1.13609272 11.6875 4.5625 C12.77611328 5.52349609 12.77611328 5.52349609 13.88671875 6.50390625 C19.06336969 12.61828693 20.59380299 18.27415006 20.45410156 26.16992188 C20.45468567 27.04891144 20.45526978 27.927901 20.45587158 28.83352661 C20.45310527 31.7123491 20.42208274 34.59011046 20.390625 37.46875 C20.38315743 39.47513259 20.37746694 41.48152252 20.37347412 43.48791504 C20.35825846 48.74878348 20.31901177 54.00920475 20.2746582 59.26989746 C20.23361758 64.64601595 20.21544436 70.02220725 20.1953125 75.3984375 C20.1525134 85.93251897 20.08219689 96.4661522 20 107 C13.4 107 6.8 107 0 107 C0 71.69 0 36.38 0 0 Z " fill="#BE573A" transform="translate(263,150)"/>
</svg>
