<?xml version="1.0" encoding="UTF-8"?>
<svg version="1.1" xmlns="http://www.w3.org/2000/svg" width="512" height="512">
<path d="M0 0 C1.48527207 -0.00417505 2.97054095 -0.00965351 4.45580393 -0.01631981 C8.52917389 -0.03077065 12.60234146 -0.02653086 16.67572248 -0.019153 C21.0718592 -0.01442275 25.46795205 -0.02692989 29.86407471 -0.03717041 C38.47318867 -0.05436636 47.08222967 -0.0551968 55.69135635 -0.04995751 C62.68864983 -0.04591618 69.68592174 -0.04735892 76.68321419 -0.05270576 C78.17702194 -0.0538284 78.17702194 -0.0538284 79.70100762 -0.05497371 C81.72411104 -0.05650518 83.74721445 -0.05804353 85.77031786 -0.05958868 C104.74236274 -0.07331651 123.71436638 -0.06787396 142.68641032 -0.05640347 C160.04322531 -0.04647004 177.39993372 -0.05941316 194.75673228 -0.08333766 C212.5795592 -0.10771942 230.40233646 -0.11733884 248.22517973 -0.11068493 C258.23103247 -0.10719076 268.23680322 -0.10943791 278.24264336 -0.12693596 C286.76006487 -0.14164635 295.27734666 -0.14230855 303.79476541 -0.12486505 C308.14008944 -0.11634323 312.48516374 -0.11423428 316.83047485 -0.1295166 C320.809804 -0.1433385 324.78866887 -0.138633 328.76797099 -0.11927737 C330.20598204 -0.11550935 331.64403005 -0.11846246 333.08200824 -0.12888902 C342.18220963 -0.19017105 348.67138322 0.19326205 355.7872467 6.31736755 C356.32607483 6.95932068 356.86490295 7.6012738 357.4200592 8.26268005 C357.97435608 8.89947693 358.52865295 9.5362738 359.0997467 10.19236755 C362.37281072 15.16388641 362.83689303 20.19551584 362.80232811 26.00649834 C362.80583418 26.7572858 362.80934026 27.50807326 362.81295258 28.28161186 C362.82226299 30.79961634 362.81734421 33.31738936 362.81248474 35.83540344 C362.81622117 37.65804391 362.82082266 39.48068278 362.82621539 41.3033191 C362.8384615 46.31383206 362.83818302 51.32427834 362.83582664 56.33480287 C362.83541888 61.73777438 362.8464536 67.14072439 362.85594177 72.54368591 C362.87256115 83.12946683 362.87805173 93.71522547 362.87916653 104.30101834 C362.88011648 112.90397624 362.8842241 121.50692678 362.89056778 130.10988235 C362.90818207 154.49309945 362.91740625 178.87629892 362.91590683 203.25952242 C362.91578696 205.23165918 362.91578696 205.23165918 362.91566467 207.24363708 C362.91558291 208.55999732 362.91550115 209.87635756 362.91541691 211.2326075 C362.91460376 232.57285939 362.93374819 253.91302825 362.96194141 275.25326107 C362.99065198 297.15765507 363.00448273 319.06201463 363.00275385 340.96642792 C363.00208936 353.26719334 363.00760764 365.56788478 363.02910995 377.86863327 C363.04729762 388.34038702 363.05168888 398.81203326 363.03809111 409.28379594 C363.03154953 414.62755714 363.03148728 419.97111195 363.04879761 425.31485367 C363.06448047 430.20644415 363.06171369 435.09766378 363.04422934 439.98924495 C363.04114891 441.75904982 363.04483096 443.52888204 363.05594949 445.29865466 C363.16002737 463.03968562 363.16002737 463.03968562 356.79896545 470.41111755 C356.24080139 470.85713318 355.68263733 471.3031488 355.1075592 471.76268005 C354.55197327 472.22416443 353.99638733 472.6856488 353.42396545 473.16111755 C349.12680627 475.96633166 345.40292972 476.63837418 340.31429577 476.64494896 C338.42050459 476.6546223 338.42050459 476.6546223 336.488455 476.66449106 C335.08985745 476.66154886 333.6912603 476.65841343 332.29266357 476.65510559 C330.80499456 476.65884214 329.31732751 476.66344368 327.82966357 476.66883624 C323.74041459 476.68108108 319.65124732 476.68080403 315.56198418 476.67844748 C311.15218538 476.67803969 306.74241291 476.68907487 302.33262634 476.69856262 C293.69250634 476.71518174 285.05241362 476.72067258 276.41227897 476.72178738 C269.38967426 476.72273742 262.36707856 476.72684553 255.3444767 476.73318863 C235.43769042 476.75080353 215.53092571 476.76002711 195.62413158 476.75852768 C194.01406668 476.75840781 194.01406668 476.75840781 192.37147522 476.75828552 C191.29678928 476.75820376 190.22210334 476.758122 189.11485115 476.75803776 C171.69648086 476.75722479 154.27819702 476.77636457 136.85985174 476.80456226 C118.97833242 476.83328153 101.09685528 476.84710308 83.2153123 476.8453747 C73.17477157 476.84471047 63.13432147 476.85021734 53.0938015 476.8717308 C44.54523062 476.88993 35.99679146 476.89430032 27.44820961 476.88071196 C23.08669264 476.87417593 18.72542848 476.87408793 14.36393547 476.89141846 C10.36973193 476.9071263 6.3759821 476.90430921 2.38178978 476.88685019 C0.93833203 476.88377523 -0.50515939 476.88743146 -1.94857744 476.89857034 C-10.91863988 476.9631974 -17.27590908 476.5695701 -24.44322205 470.7822113 C-30.33670084 463.74132956 -31.91856647 456.30628668 -31.79551697 447.28782654 C-31.79617409 445.99838387 -31.79617409 445.99838387 -31.79684448 444.68289185 C-31.79477399 441.87461189 -31.77152612 439.06694794 -31.74790955 436.2587738 C-31.74230739 434.29865851 -31.73804022 432.33853898 -31.73504639 430.37841797 C-31.72364641 425.2442393 -31.69422133 420.11031925 -31.66093445 414.97624207 C-31.63012862 409.72735593 -31.61651866 404.4784276 -31.60142517 399.22947693 C-31.56934668 388.94876497 -31.51820948 378.6682441 -31.4549408 368.38768005 C-32.67301422 368.39878311 -33.89108765 368.40988617 -35.14607239 368.42132568 C-46.65089981 368.52288529 -58.15563572 368.59773366 -69.66081047 368.64674091 C-75.57512538 368.67278354 -81.48907707 368.70808471 -87.40318298 368.76487732 C-93.11554131 368.81938642 -98.82755126 368.84914068 -104.54014969 368.86206627 C-106.71457016 368.87127219 -108.88897255 368.88924916 -111.06324387 368.91633034 C-114.11984018 368.95287125 -117.17501508 368.95761488 -120.23179626 368.95530701 C-121.12156662 368.97328339 -122.01133698 368.99125977 -122.92807007 369.00978088 C-130.33630232 368.94964591 -136.80273755 366.66637746 -142.37789726 361.66138172 C-148.54249203 355.20511929 -149.90544373 347.72506523 -149.83589172 339.12742615 C-149.8405717 338.22785376 -149.84525167 337.32828136 -149.85007346 336.4014492 C-149.86198425 333.40451943 -149.85258151 330.40805025 -149.84312439 327.41111755 C-149.84719182 325.25545486 -149.85253467 323.09979425 -149.85905457 320.94413757 C-149.87271343 315.10123315 -149.86743533 309.25848791 -149.85791731 303.41558075 C-149.85031336 297.2960874 -149.85736837 291.17660754 -149.86207581 285.05711365 C-149.8675312 274.78120989 -149.86034737 264.50537086 -149.84605408 254.22947693 C-149.82972803 242.35516613 -149.83501669 230.48100986 -149.85153329 218.6067028 C-149.86515427 208.40521358 -149.86706481 198.20377084 -149.85921729 188.00227547 C-149.85454416 181.9121917 -149.85390609 175.82218053 -149.86382675 169.73210144 C-149.87250297 164.00616484 -149.86646231 158.28042718 -149.84914398 152.55451202 C-149.84518267 150.4550942 -149.84630707 148.35565958 -149.85293198 146.25624847 C-149.86115149 143.38658549 -149.85082077 140.51755673 -149.83589172 137.64793396 C-149.84258389 136.82068502 -149.84927605 135.99343609 -149.85617101 135.141119 C-149.77917327 127.49038251 -147.76405093 120.75496905 -142.37789726 115.11397839 C-135.88552627 109.28557331 -128.71346757 107.64869457 -120.23179626 107.8200531 C-119.26473251 107.81932297 -118.29766876 107.81859283 -117.30130005 107.81784058 C-114.14098262 107.8212924 -110.98218458 107.86003939 -107.8221283 107.8993988 C-105.61682439 107.90873548 -103.41151004 107.91584755 -101.20619202 107.9208374 C-95.4290505 107.93983971 -89.65254718 107.98888235 -83.87565613 108.0443573 C-77.96988048 108.09569596 -72.06400074 108.1183826 -66.1580658 108.14353943 C-54.59007856 108.19700751 -43.02256295 108.28223815 -31.4549408 108.38768005 C-31.46493355 106.72303711 -31.46493355 106.72303711 -31.47512817 105.02476501 C-31.53603068 94.54939331 -31.58095732 84.07405769 -31.61037731 73.59854889 C-31.62601105 68.21340537 -31.64720756 62.82840517 -31.68125916 57.44334412 C-31.71393419 52.24324135 -31.73181105 47.04327615 -31.73957253 41.84307861 C-31.74510141 39.86241491 -31.75589795 37.88175846 -31.77213097 35.90115356 C-31.79401343 33.11980614 -31.7969032 30.33902204 -31.79551697 27.55760193 C-31.8063028 26.74479767 -31.81708862 25.93199341 -31.82820129 25.09455872 C-31.79445279 18.80744738 -30.61455637 13.4079345 -26.8768158 8.1806488 C-26.32509705 7.65084412 -25.7733783 7.12103943 -25.2049408 6.57518005 C-24.66353455 6.03248474 -24.1221283 5.48978943 -23.5643158 4.9306488 C-16.17552191 -0.47411709 -8.84706459 -0.0403686 0 0 Z " fill="#2166C3" transform="translate(149.45494079589844,17.612319946289063)"/>
<path d="M0 0 C81.84 0 163.68 0 248 0 C248.0825 36.465 248.165 72.93 248.25 110.5 C248.28641602 122.01712891 248.32283203 133.53425781 248.36035156 145.40039062 C248.37841797 159.45605469 248.37841797 159.45605469 248.3817749 166.0345459 C248.38550396 170.63260608 248.40050358 175.23048183 248.42230225 179.82849121 C248.44974246 185.69419577 248.45796394 191.55963222 248.4522891 197.42539501 C248.45347571 199.57770379 248.46140546 201.73002196 248.47686052 203.88227558 C248.49678265 206.7918504 248.49195169 209.70038623 248.48101807 212.60998535 C248.49266872 213.45023003 248.50431938 214.2904747 248.51632309 215.15618134 C248.44953911 221.7770217 246.60988983 226.97556391 242.25390625 232.0234375 C241.69574219 232.46945312 241.13757813 232.91546875 240.5625 233.375 C240.00691406 233.83648437 239.45132812 234.29796875 238.87890625 234.7734375 C234.58174707 237.5786516 230.85787051 238.25069413 225.76923656 238.25726891 C223.87544538 238.26694224 223.87544538 238.26694224 221.94339579 238.276811 C220.54479825 238.27386881 219.1462011 238.27073338 217.74760437 238.26742554 C216.25993536 238.27116209 214.7722683 238.27576363 213.28460437 238.28115618 C209.19535538 238.29340103 205.10618812 238.29312397 201.01692498 238.29076743 C196.60712617 238.29035964 192.1973537 238.30139481 187.78756714 238.31088257 C179.14744713 238.32750168 170.50735442 238.33299253 161.86721977 238.33410732 C154.84461506 238.33505737 147.82201936 238.33916547 140.7994175 238.34550858 C120.89263122 238.36312348 100.98586651 238.37234706 81.07907238 238.37084763 C79.46900748 238.37072776 79.46900748 238.37072776 77.82641602 238.37060547 C76.75173007 238.37052371 75.67704413 238.37044195 74.56979195 238.37035771 C57.15142166 238.36954474 39.73313782 238.38868451 22.31479254 238.4168822 C4.43327321 238.44560147 -13.44820393 238.45942302 -31.3297469 238.45769465 C-41.37028763 238.45703042 -51.41073773 238.46253729 -61.45125771 238.48405075 C-69.99982859 238.50224995 -78.54826775 238.50662026 -87.0968496 238.4930319 C-91.45836656 238.48649587 -95.81963072 238.48640788 -100.18112373 238.5037384 C-104.17532728 238.51944624 -108.1690771 238.51662916 -112.16326942 238.49917014 C-113.60672718 238.49609517 -115.0502186 238.4997514 -116.49363665 238.51089029 C-125.46369908 238.57551734 -131.82096829 238.18189005 -138.98828125 232.39453125 C-144.88176004 225.35364951 -146.46362568 217.91860662 -146.34057617 208.90014648 C-146.34101425 208.04051804 -146.34145233 207.18088959 -146.34190369 206.29521179 C-146.33983319 203.48693184 -146.31658532 200.67926789 -146.29296875 197.87109375 C-146.28736659 195.91097845 -146.28309942 193.95085893 -146.28010559 191.99073792 C-146.26870562 186.85655925 -146.23928054 181.7226392 -146.20599365 176.58856201 C-146.17518782 171.33967587 -146.16157787 166.09074755 -146.14648438 160.84179688 C-146.11440588 150.56108491 -146.06326869 140.28056405 -146 130 C-145.36923333 129.99761165 -144.73846666 129.99522329 -144.08858585 129.99276257 C-128.71344991 129.93352775 -113.33849366 129.85792376 -97.96353245 129.76428509 C-90.52819299 129.71939272 -83.09290072 129.67996311 -75.6574707 129.65356445 C-69.17385163 129.63053105 -62.69038273 129.59707382 -56.20688289 129.55129844 C-52.77652121 129.52743784 -49.34630761 129.50866235 -45.91586494 129.50238609 C-42.07853326 129.4927402 -38.24173976 129.464673 -34.40454102 129.43237305 C-32.71383987 129.43452568 -32.71383987 129.43452568 -30.98898315 129.4367218 C-22.99087605 129.34173377 -15.80362146 128.39342172 -9.25 123.5 C17.12392409 95.09731252 -0.02280181 2.4853974 0 0 Z " fill="#103D91" transform="translate(264,256)"/>
<path d="M0 0 C1.48527207 -0.00417505 2.97054095 -0.00965351 4.45580393 -0.01631981 C8.52917389 -0.03077065 12.60234146 -0.02653086 16.67572248 -0.019153 C21.0718592 -0.01442275 25.46795205 -0.02692989 29.86407471 -0.03717041 C38.47318867 -0.05436636 47.08222967 -0.0551968 55.69135635 -0.04995751 C62.68864983 -0.04591618 69.68592174 -0.04735892 76.68321419 -0.05270576 C78.17702194 -0.0538284 78.17702194 -0.0538284 79.70100762 -0.05497371 C81.72411104 -0.05650518 83.74721445 -0.05804353 85.77031786 -0.05958868 C104.74236274 -0.07331651 123.71436638 -0.06787396 142.68641032 -0.05640347 C160.04322531 -0.04647004 177.39993372 -0.05941316 194.75673228 -0.08333766 C212.5795592 -0.10771942 230.40233646 -0.11733884 248.22517973 -0.11068493 C258.23103247 -0.10719076 268.23680322 -0.10943791 278.24264336 -0.12693596 C286.76006487 -0.14164635 295.27734666 -0.14230855 303.79476541 -0.12486505 C308.14008944 -0.11634323 312.48516374 -0.11423428 316.83047485 -0.1295166 C320.809804 -0.1433385 324.78866887 -0.138633 328.76797099 -0.11927737 C330.20598204 -0.11550935 331.64403005 -0.11846246 333.08200824 -0.12888902 C342.18220963 -0.19017105 348.67138322 0.19326205 355.7872467 6.31736755 C356.32607483 6.95932068 356.86490295 7.6012738 357.4200592 8.26268005 C357.97435608 8.89947693 358.52865295 9.5362738 359.0997467 10.19236755 C362.88831095 15.94688946 362.82382969 21.70248407 362.77210999 28.34031677 C362.77240204 29.32630356 362.77269409 30.31229034 362.772995 31.32815552 C362.77160595 34.57465025 362.75606462 37.8209131 362.7403717 41.06736755 C362.73664007 43.32323583 362.73379381 45.57910572 362.73179626 47.8349762 C362.72417171 53.76317342 362.70453324 59.69127215 362.68238831 65.61943054 C362.66190457 71.67237516 362.65278914 77.72533574 362.64271545 83.77830505 C362.62128631 95.64813992 362.5871645 107.51790178 362.5450592 119.38768005 C330.45059244 119.54740855 298.35623888 119.67126828 266.26146746 119.74513736 C262.47139452 119.75389218 258.68132237 119.76295245 254.89125061 119.77220154 C253.75946003 119.7749558 253.75946003 119.7749558 252.60480499 119.7777657 C240.39158516 119.80821529 228.17859625 119.86340182 215.96551335 119.92774963 C203.43139158 119.99323755 190.89739065 120.03209722 178.36310482 120.04629952 C170.63020013 120.05589893 162.89794814 120.08620335 155.1652444 120.14309532 C149.23326314 120.18451251 143.30161587 120.18885955 137.36948586 120.17943382 C134.93784378 120.18135982 132.50617703 120.19528724 130.07468224 120.22211838 C126.75286557 120.25697649 123.43383558 120.24856608 120.11195374 120.22946167 C119.15084655 120.24985156 118.18973936 120.27024145 117.19950771 120.29124922 C111.94630879 120.20964715 109.1232049 119.49818331 105.14867306 115.9544735 C104.55053608 115.33454627 103.9523991 114.71461905 103.33613676 114.07590616 C97.20602831 108.29781515 87.9997226 108.94530051 80.14051819 108.95530701 C78.9297612 108.94511536 77.71900421 108.93492371 76.47155762 108.92442322 C73.17874386 108.89954841 69.88619849 108.88759375 66.5933063 108.88156915 C63.14193915 108.87213772 59.69069859 108.84593081 56.2394104 108.82156372 C49.71611427 108.77802537 43.19284289 108.74940092 36.66944605 108.72624034 C29.2376246 108.69912041 21.80593131 108.65521334 14.37420166 108.60995162 C-0.90211312 108.51728694 -16.17845206 108.4455234 -31.4549408 108.38768005 C-31.52455292 96.79134189 -31.57780906 85.19505371 -31.61037731 73.59854889 C-31.62601105 68.21340537 -31.64720756 62.82840517 -31.68125916 57.44334412 C-31.71393419 52.24324135 -31.73181105 47.04327615 -31.73957253 41.84307861 C-31.74510141 39.86241491 -31.75589795 37.88175846 -31.77213097 35.90115356 C-31.79401343 33.11980614 -31.7969032 30.33902204 -31.79551697 27.55760193 C-31.8063028 26.74479767 -31.81708862 25.93199341 -31.82820129 25.09455872 C-31.79445279 18.80744738 -30.61455637 13.4079345 -26.8768158 8.1806488 C-26.32509705 7.65084412 -25.7733783 7.12103943 -25.2049408 6.57518005 C-24.66353455 6.03248474 -24.1221283 5.48978943 -23.5643158 4.9306488 C-16.17552191 -0.47411709 -8.84706459 -0.0403686 0 0 Z " fill="#40A4EC" transform="translate(149.45494079589844,17.612319946289063)"/>
<path d="M0 0 C81.84 0 163.68 0 248 0 C248 39.27 248 78.54 248 119 C164.51 119 81.02 119 -5 119 C-3.68 115.7 -2.36 112.4 -1 109 C-0.67 73.03 -0.34 37.06 0 0 Z " fill="#1859BD" transform="translate(264,256)"/>
<path d="M0 0 C83.49 0 166.98 0 253 0 C253 39.27 253 78.54 253 119 C178.09 119 103.18 119 26 119 C25.67 89.96 25.34 60.92 25 31 C20.38382487 20.60648061 20.38382487 20.60648061 11.5 15.1328125 C10.613125 14.84148437 9.72625 14.55015625 8.8125 14.25 C4.37454044 12.63074449 4.37454044 12.63074449 2.7265625 9.85546875 C1.98204391 7.57399842 1.44684526 5.3556988 1 3 C0.67 2.01 0.34 1.02 0 0 Z " fill="#2B7AD4" transform="translate(259,137)"/>
<path d="M0 0 C9.24 0 18.48 0 28 0 C31.15912062 10.93541754 33.45481542 21.95283592 35.64697266 33.11938477 C37.34942082 41.78541958 39.13121821 50.43056628 41 59.0625 C43.39578212 70.13647775 45.71806282 81.22381782 47.99609375 92.32250977 C49.27861322 98.56106355 50.59734727 104.787307 52 111 C52.16491943 110.16380127 52.32983887 109.32760254 52.49975586 108.46606445 C56.63294166 87.6420894 61.29836856 67.00141619 66.41744995 46.39842224 C68.09280563 39.65092796 69.70654746 32.88932432 71.3125 26.125 C73.39879299 17.37378532 75.6251383 8.67737928 78 0 C87.24 0 96.48 0 106 0 C107.3780251 4.13407531 108.45723715 7.79874746 109.296875 12.015625 C109.64685547 13.748125 109.64685547 13.748125 110.00390625 15.515625 C110.25011719 16.74796875 110.49632812 17.9803125 110.75 19.25 C112.702054 28.86602954 114.7515506 38.44798202 117 48 C121.72792744 68.19436026 126.08366668 88.45775741 129 109 C129.33 109 129.66 109 130 109 C130.10957031 108.35490479 130.21914062 107.70980957 130.33203125 107.04516602 C133.3552968 89.48165226 137.23319627 72.2639065 141.5287323 54.97816467 C143.15455233 48.41877429 144.68214472 41.8380325 146.1875 35.25 C146.66389649 33.17183694 147.14045497 31.093711 147.6171875 29.015625 C147.8450293 28.02240234 148.07287109 27.02917969 148.30761719 26.00585938 C149.46062444 21.00027923 150.63170398 15.99909113 151.8125 11 C152.01963623 10.11473633 152.22677246 9.22947266 152.44018555 8.31738281 C153.88337117 2.23325766 153.88337117 2.23325766 155 0 C163.91 0 172.82 0 182 0 C179.5745221 10.46420466 177.14725987 20.84741092 174.0168457 31.12084961 C171.98620109 37.86490421 170.2447969 44.67721665 168.5 51.5 C166.44562318 59.52535551 164.32084676 67.50334467 161.9140625 75.4296875 C159.92405772 82.07165151 158.21960521 88.78379741 156.5 95.5 C154.22563778 104.37709335 151.84101907 113.19471064 149.19921875 121.96875 C147.00401174 129.27510317 145.02675588 136.64577153 143 144 C133.43 144 123.86 144 114 144 C111.132587 133.50729844 108.57376379 122.99967043 106.25 112.375 C105.90671187 110.81409761 105.56328411 109.25322593 105.21972656 107.69238281 C104.50498928 104.4415528 103.79276791 101.19018343 103.08203125 97.93847656 C102.18853219 93.8537653 101.28530104 89.77127706 100.3793335 85.6893158 C96.42596882 67.8567127 92.71697021 50.07142686 90 32 C89.87995605 32.71728271 89.75991211 33.43456543 89.63623047 34.17358398 C89.05800193 37.59644672 88.46643814 41.01689589 87.875 44.4375 C87.59269531 46.12649414 87.59269531 46.12649414 87.3046875 47.84960938 C83.40984114 70.18411896 77.24277438 92.11340729 71.63458252 114.06677246 C70.76811563 117.46020092 69.90367404 120.85414531 69.0390625 124.24804688 C67.36147683 130.83257063 65.68068124 137.41626267 64 144 C54.43 144 44.86 144 35 144 C31.97145857 132.0633235 28.9453457 120.12603802 25.92323875 108.18773079 C24.51911973 102.64138751 23.11403173 97.09529387 21.70654297 91.54980469 C10.32568175 46.70407869 10.32568175 46.70407869 6.15820312 28.07739258 C4.7275776 21.70513869 3.1173021 15.37848493 1.4737854 9.05819702 C0.67982599 5.96243183 0 3.2104822 0 0 Z " fill="#FCFDFE" transform="translate(42,186)"/>
<path d="M0 0 C1.20398438 0.03158203 2.40796875 0.06316406 3.6484375 0.09570312 C6.60151915 0.17773317 9.54945453 0.29245914 12.5 0.4375 C12.52881485 2.51424098 12.54935335 4.59109788 12.56640625 6.66796875 C12.58489624 8.40276489 12.58489624 8.40276489 12.60375977 10.17260742 C12.3760986 17.33616699 9.57478003 22.37079619 4.63596916 27.49367237 C-3.30527848 34.72056349 -11.82833778 35.14692651 -22.12939453 35.00512695 C-23.57912649 35.00371386 -25.02886202 35.00451356 -26.47859192 35.00733948 C-30.38521957 35.00876488 -34.2910682 34.97951918 -38.19751596 34.94446969 C-42.29072448 34.91305845 -46.38395395 34.91026388 -50.4772644 34.90434265 C-58.21549111 34.88884733 -65.95336154 34.84787785 -73.69143188 34.7975952 C-82.50643953 34.74156685 -91.32146486 34.71418144 -100.13660645 34.68911803 C-118.25794469 34.63695767 -136.37893054 34.54808423 -154.5 34.4375 C-154.5 26.8475 -154.5 19.2575 -154.5 11.4375 C-150.79080322 11.42291748 -147.08160645 11.40833496 -143.26000977 11.39331055 C-130.99443166 11.34293681 -118.72898463 11.27648581 -106.46353245 11.20178509 C-99.02819299 11.15689272 -91.59290072 11.11746311 -84.1574707 11.09106445 C-77.67385163 11.06803105 -71.19038273 11.03457382 -64.70688289 10.98879844 C-61.27652121 10.96493784 -57.84630761 10.94616235 -54.41586494 10.93988609 C-50.57853326 10.9302402 -46.74173976 10.902173 -42.90454102 10.86987305 C-41.21383987 10.87202568 -41.21383987 10.87202568 -39.48898315 10.8742218 C-32.34016405 10.78932018 -25.03480108 10.40546704 -19.34570312 5.62866211 C-18.57129883 4.71225952 -18.57129883 4.71225952 -17.78125 3.77734375 C-12.5557686 -1.14876111 -6.81061532 -0.34053077 0 0 Z " fill="#0D3274" transform="translate(272.5,374.5625)"/>
<path d="M0 0 C6.93 0 13.86 0 21 0 C21 39.27 21 78.54 21 119 C12.42 119 3.84 119 -5 119 C-3.68 115.7 -2.36 112.4 -1 109 C-0.62927816 105.18507036 -0.43463352 101.66427488 -0.45410156 97.85888672 C-0.44376389 96.79428726 -0.43342621 95.72968781 -0.42277527 94.63282776 C-0.39350849 91.14829032 -0.39185147 87.66433781 -0.390625 84.1796875 C-0.37563253 81.75016177 -0.35890315 79.3206462 -0.34051514 76.8911438 C-0.29694969 70.52245599 -0.27686631 64.15390566 -0.26177979 57.78509521 C-0.24216985 51.27591866 -0.20020415 44.76688972 -0.16015625 38.2578125 C-0.08497088 25.50522899 -0.03667673 12.75275246 0 0 Z " fill="#144898" transform="translate(264,256)"/>
<path d="M0 0 C7.92668952 1.13238422 11.43551858 2.7591098 16.25 8.9375 C20.49208109 14.67343222 21.29007824 19.59064916 21.22705078 26.64575195 C21.22734283 27.5047963 21.22763489 28.36384064 21.22793579 29.24891663 C21.2265462 32.07880878 21.21100245 34.90843527 21.1953125 37.73828125 C21.19158105 39.70411536 21.1887347 41.66995133 21.18673706 43.63578796 C21.179111 48.80283772 21.15947127 53.96977456 21.1373291 59.13677979 C21.11684859 64.41213453 21.10773062 69.68750756 21.09765625 74.96289062 C21.07622444 85.30865128 21.04105061 95.65429857 21 106 C14.07 106 7.14 106 0 106 C0 71.02 0 36.04 0 0 Z " fill="#2362AA" transform="translate(264,150)"/>
</svg>
